<?xml version="1.0" encoding="UTF-8" standalone="no"?>
<!-- Created with Inkscape (http://www.inkscape.org/) -->

<svg
   width="100%"
   height="100%"
   viewBox="0 0 210 297"
   version="1.1"
   id="svg6420"
   inkscape:version="1.2 (dc2aedaf03, 2022-05-15)"
   sodipodi:docname="samo bus.svg"
   xmlns:inkscape="http://www.inkscape.org/namespaces/inkscape"
   xmlns:sodipodi="http://sodipodi.sourceforge.net/DTD/sodipodi-0.dtd"
   xmlns="http://www.w3.org/2000/svg"
   xmlns:svg="http://www.w3.org/2000/svg">
  <sodipodi:namedview
     id="namedview6422"
     pagecolor="#ffffff"
     bordercolor="#000000"
     borderopacity="0.25"
     inkscape:showpageshadow="2"
     inkscape:pageopacity="0.0"
     inkscape:pagecheckerboard="0"
     inkscape:deskcolor="#d1d1d1"
     inkscape:document-units="mm"
     showgrid="false"
     inkscape:zoom="0.5852904"
     inkscape:cx="270.80574"
     inkscape:cy="562.11412"
     inkscape:window-width="1600"
     inkscape:window-height="837"
     inkscape:window-x="-8"
     inkscape:window-y="-8"
     inkscape:window-maximized="1"
     inkscape:current-layer="layer1" />
  <defs
     id="defs6417" />
  <g
     inkscape:label="Layer 1"
     inkscape:groupmode="layer"
     id="layer1">
    <g
       id="g6545"
       inkscape:label="g6545"
       transform="translate(8.1829643,-45.861547)">
      <path
         style="fill:#edd196;fill-opacity:1;stroke-width:0.0844541"
         d="m 112.94176,218.94095 c -2.78699,-1.23662 -5.07278,-2.25249 -5.07953,-2.25748 -0.007,-0.005 -0.91061,-8.57906 -2.00856,-19.05348 -1.09796,-10.47443 -2.3366,-22.27478 -2.75253,-26.22301 -0.41593,-3.94823 -0.75672,-7.34462 -0.75731,-7.54753 l -10e-4,-0.36894 2.34361,0.053 c 6.13269,0.13871 12.11039,0.24167 18.05206,0.31094 3.57663,0.0417 7.54809,0.11495 8.82546,0.1628 1.27737,0.0479 4.62175,0.12112 7.43196,0.16282 3.26327,0.0484 5.27731,0.11125 5.57397,0.17388 0.25547,0.0539 0.78754,0.12432 1.18236,0.1564 0.39482,0.0321 0.85087,0.11894 1.01345,0.19301 0.59941,0.27312 0.77437,0.32733 1.05636,0.32733 0.16362,0 0.35367,0.065 0.43941,0.15038 0.0831,0.0827 0.24609,0.19199 0.36222,0.24285 0.51536,0.22569 0.65332,0.29588 0.97122,0.49413 0.1858,0.11586 0.45183,0.26187 0.59118,0.32446 0.32408,0.14556 2.4914,2.38568 2.4914,2.57509 0,0.0785 0.0703,0.27516 0.15616,0.43704 0.0859,0.16189 0.17877,0.51881 0.2064,0.79315 0.0276,0.27435 0.0902,0.52354 0.13913,0.55376 0.0489,0.0302 0.14523,0.2428 0.21408,0.47241 0.17891,0.59664 0.42068,0.71381 1.46576,0.71037 0.53574,-0.002 0.86628,-0.0404 0.96106,-0.11245 0.17713,-0.13457 0.32002,-0.49303 0.32002,-0.80279 0,-0.15076 0.097,-0.32528 0.2785,-0.50123 l 0.2785,-0.26993 h 2.68733 2.68733 l 0.33324,0.33324 0.33323,0.33323 -0.0496,0.95469 c -0.0273,0.52508 -0.0773,1.92381 -0.11109,3.10828 -0.0496,1.73666 -0.0902,2.22949 -0.20941,2.54569 -0.0813,0.21566 -0.18104,0.71912 -0.22155,1.1188 -0.0405,0.39968 -0.10955,0.77429 -0.15342,0.83247 -0.0439,0.0582 -0.13087,0.26785 -0.19334,0.46592 -0.0625,0.19808 -0.16503,0.40284 -0.22791,0.45502 -0.0629,0.0522 -0.16529,0.21316 -0.22758,0.35772 -0.16915,0.39257 -0.29933,0.66204 -0.42801,0.88599 -0.15828,0.27547 -1.1598,1.27707 -1.27696,1.27707 -0.0522,0 -0.16371,0.076 -0.24778,0.16891 -0.0841,0.0929 -0.19735,0.16891 -0.25173,0.16891 -0.0544,0 -0.18818,0.0951 -0.29734,0.21126 -0.25476,0.27117 -0.6527,0.37886 -1.40224,0.37945 l -0.60004,4.7e-4 -0.43452,-0.45945 -0.43452,-0.45944 v -3.67277 c 0,-3.22629 -0.0161,-3.68892 -0.13272,-3.80549 -0.17956,-0.17957 -1.40351,-0.18905 -1.58031,-0.0123 -0.17566,0.17567 -0.24223,17.00111 -0.12689,32.07426 0.0838,10.95618 0.0802,11.81437 -0.0503,12.01359 -0.0773,0.11801 -0.18476,0.21455 -0.23875,0.21455 -0.054,0 -0.1892,0.0855 -0.30044,0.19003 l -0.20225,0.19002 -16.48288,0.0422 -16.48287,0.0422 -1.07244,0.57007 c -0.58984,0.31353 -1.1219,0.56931 -1.18236,0.5684 -0.0605,-9.1e-4 -2.39018,-1.01345 -5.17716,-2.25007 z m 38.32821,-6.59108 c 0.79511,-0.0642 0.8411,-0.0789 1.07679,-0.3429 l 0.2462,-0.27581 v -1.42836 c 0,-1.1859 -0.0225,-1.45088 -0.13271,-1.56107 -0.11434,-0.11433 -0.46051,-0.13271 -2.49984,-0.13271 h -2.36713 l -0.28715,0.28714 -0.28714,0.28715 v 1.448 c 0,1.43461 0.002,1.44997 0.21261,1.66062 l 0.21261,0.21261 1.49759,-0.0438 c 0.82367,-0.0241 1.87135,-0.074 2.32817,-0.11089 z m -26.9403,-0.17311 c 1.86437,-0.0824 1.7447,0.0524 1.7447,-1.96644 0,-1.25538 -0.022,-1.52678 -0.13271,-1.63749 -0.11491,-0.11491 -0.48193,-0.13272 -2.73541,-0.13272 -2.35429,0 -2.61976,0.0141 -2.7816,0.1478 -0.28442,0.23495 -0.43098,0.99153 -0.43098,2.22488 0,1.06122 0.007,1.10469 0.21335,1.31097 l 0.21335,0.21334 1.24348,-0.0487 c 0.68392,-0.0268 1.88354,-0.077 2.66582,-0.11162 z m 14.37443,-18.13224 c 0.15136,-0.15135 0.2073,-0.29893 0.2073,-0.54691 0,-0.19075 0.0739,-0.46081 0.16859,-0.61613 0.0927,-0.15208 0.16873,-0.33125 0.16891,-0.39814 1.7e-4,-0.0669 0.12273,-0.36525 0.27236,-0.66301 0.37917,-0.75457 1.45342,-1.76264 2.1453,-2.01313 1.14679,-0.41518 1.35346,-0.45372 2.43352,-0.45372 0.65098,0 1.06092,0.0326 1.06092,0.0845 0,0.0464 0.0928,0.0845 0.20615,0.0845 0.11338,0 0.22964,0.038 0.25835,0.0845 0.0287,0.0464 0.17784,0.0845 0.33141,0.0845 0.15357,0 0.36985,0.0675 0.48063,0.15002 0.11077,0.0825 0.30929,0.20475 0.44114,0.27164 0.29076,0.1475 1.74494,1.65195 1.74494,1.80526 0,0.06 0.0939,0.2946 0.20862,0.52124 0.11474,0.22664 0.23368,0.58462 0.26433,0.79551 0.0682,0.46963 0.23559,0.81441 0.45137,0.92989 0.0894,0.0478 0.64503,0.087 1.23482,0.087 h 1.07234 l 0.36893,-0.36893 0.36893,-0.36893 v -9.60221 c 0,-6.07017 -0.0303,-9.65875 -0.0823,-9.75593 -0.0453,-0.0846 -0.2187,-0.23422 -0.38544,-0.3326 l -0.30318,-0.17888 -15.67316,2.5e-4 c -11.33055,1.7e-4 -15.70436,0.0261 -15.78576,0.0937 -0.37571,0.31181 -0.36575,0.0381 -0.37126,10.20373 -0.003,5.28122 0.0202,9.66831 0.0512,9.74908 0.031,0.0808 0.19341,0.24 0.36091,0.35382 l 0.30456,0.20695 h 8.89414 8.89414 l 0.2073,-0.2073 z m 9.36453,0.0746 c 0.16406,-0.16406 0.16596,-0.32261 0.011,-0.91766 -0.19968,-0.76662 -1.41134,-2.14865 -2.26661,-2.5853 -0.47689,-0.24348 -0.51755,-0.24922 -1.76512,-0.24922 -1.19449,0 -1.3048,0.0138 -1.70767,0.21279 -0.23687,0.11703 -0.67771,0.42139 -0.97964,0.67636 -0.30192,0.25496 -0.67246,0.54301 -0.82342,0.64009 -0.18318,0.11781 -0.27448,0.2433 -0.27448,0.37728 0,0.11041 -0.0759,0.32519 -0.16859,0.47727 -0.21353,0.35022 -0.23539,1.16951 -0.0365,1.36839 0.11679,0.11679 0.59739,0.13271 4.00554,0.13271 3.40814,0 3.88874,-0.0159 4.00553,-0.13271 z"
         id="path3439" />
      <path
         style="fill:#000000;fill-opacity:1;stroke-width:0.0844673"
         d="m 129.60416,225.54174 c -4.67549,-0.12917 -32.460323,-0.29195 -79.906068,-0.46813 -7.469788,-0.0277 -8.474952,-0.0469 -9.038002,-0.17238 -0.813058,-0.18118 -1.481961,-0.53496 -4.434533,-2.34543 -0.232285,-0.14244 -0.726419,-0.48951 -1.098075,-0.77128 -0.371656,-0.28177 -0.738854,-0.53622 -0.815995,-0.56545 -0.189257,-0.0717 -1.205948,-0.77477 -1.675791,-1.15884 -0.209056,-0.1709 -0.614608,-0.46899 -0.901226,-0.66244 -0.571959,-0.38603 -0.943934,-0.8239 -0.811993,-0.95584 0.05008,-0.0501 0.760392,-0.063 1.847549,-0.0337 2.587602,0.0699 17.92344,0.20659 28.722921,0.25612 7.769047,0.0356 9.394978,0.0237 9.430699,-0.0694 0.05179,-0.13496 -0.207826,-0.90172 -0.396547,-1.17115 -0.07398,-0.10563 -0.134517,-0.30949 -0.134517,-0.45303 0,-0.14354 -0.07602,-0.41832 -0.168935,-0.61063 -0.09291,-0.19231 -0.168935,-0.48547 -0.168935,-0.65146 0,-0.44003 -0.02288,-0.44609 -2.745187,-0.72707 -0.952964,-0.0984 -1.874693,-0.37333 -2.369358,-0.70685 -0.739984,-0.49891 -1.614639,-1.38071 -1.862342,-1.87755 l -0.245067,-0.49155 -0.06341,-6.41951 c -0.142443,-14.42169 -0.159276,-19.75658 -0.06383,-20.22992 0.12221,-0.60607 0.506129,-1.87357 0.604955,-1.99724 0.04251,-0.0532 0.110542,-0.30103 0.151186,-0.55075 0.05122,-0.31472 0.192807,-0.63495 0.461415,-1.04359 0.213135,-0.32426 0.387594,-0.65816 0.387688,-0.74201 2.53e-4,-0.22051 0.313424,-0.90613 1.0868,-2.37924 0.145666,-0.27746 0.264847,-0.57809 0.264847,-0.66806 0,-0.09 0.145636,-0.35709 0.323636,-0.5936 0.178,-0.23651 0.420546,-0.62006 0.538991,-0.85235 0.118445,-0.23228 0.276657,-0.53637 0.351582,-0.67574 0.07493,-0.13937 0.137518,-0.29141 0.139097,-0.33787 0.0016,-0.0464 0.115844,-0.23377 0.253922,-0.41626 0.138079,-0.18249 0.251052,-0.36916 0.251052,-0.41482 0,-0.0457 0.202784,-0.35247 0.450631,-0.68181 0.247846,-0.32933 0.514961,-0.73182 0.593588,-0.89442 0.07863,-0.1626 0.369977,-0.57773 0.647444,-0.9225 0.277468,-0.34477 0.50545,-0.66786 0.506627,-0.71797 0.0012,-0.0501 0.181725,-0.32334 0.401219,-0.60717 0.219495,-0.28383 0.689126,-0.892 1.043626,-1.35148 0.354501,-0.45948 1.171722,-1.35043 1.816047,-1.9799 0.944275,-0.92249 1.243734,-1.16559 1.543905,-1.2533 0.204823,-0.0598 0.517652,-0.20052 0.695177,-0.31258 0.177525,-0.11207 0.352036,-0.20505 0.387802,-0.20663 0.03577,-0.002 0.21707,-0.0763 0.402898,-0.16606 0.185829,-0.0898 0.415905,-0.1645 0.511281,-0.16607 0.09538,-0.002 0.323438,-0.11044 0.506804,-0.24192 0.185231,-0.13282 0.558619,-0.28615 0.840196,-0.34504 0.278742,-0.0583 0.582825,-0.12524 0.675739,-0.14877 0.09291,-0.0235 0.511027,-0.0701 0.92914,-0.1035 0.613153,-0.049 0.8287,-0.10427 1.114296,-0.28588 l 0.35409,-0.22517 4.798416,-0.0414 c 2.639128,-0.0228 5.615636,-0.0797 6.614462,-0.12653 0.998826,-0.0468 2.39344,-0.10782 3.099143,-0.13556 l 1.283095,-0.0504 0.02615,-0.22628 0.02615,-0.22628 5.480685,-0.0217 5.48069,-0.0217 0.43202,0.2017 c 0.90179,0.42103 1.05746,0.47528 1.36371,0.47528 0.39883,0 1.32256,0.33137 2.1936,0.78691 0.54995,0.28761 0.88189,0.5578 1.7832,1.45147 1.05579,1.04686 1.34168,1.39466 1.7961,2.18509 0.44951,0.7819 1.53098,3.01054 1.53098,3.15498 0,0.0852 0.0656,0.24868 0.14589,0.36324 0.17755,0.2535 0.29643,1.62199 0.30802,3.54586 0.0131,2.18077 -0.19933,23.12776 -0.24331,23.98872 -0.0755,1.47785 -0.2,8.18012 -0.26051,14.02411 -0.0644,6.21757 -0.0598,6.30138 0.35196,6.489 0.15784,0.0719 4.77216,0.0969 17.89192,0.0969 h 17.67921 l 0.37169,-0.25186 c 0.45228,-0.30647 0.50201,-0.30967 0.74775,-0.0481 0.1514,0.16115 0.18085,0.25913 0.13333,0.44345 -0.0336,0.13013 -0.0892,0.52168 -0.1236,0.87011 -0.0724,0.73267 -0.34051,1.58615 -0.61637,1.96206 -0.2466,0.33603 -1.81841,1.90887 -2.14921,2.15062 -0.13919,0.10172 -0.36387,0.21077 -0.49928,0.24233 -0.13541,0.0316 -0.34123,0.11938 -0.45738,0.19516 -0.19169,0.12506 -1.0409,0.13853 -9.20693,0.14604 -4.94767,0.005 -10.04105,-0.0206 -11.31862,-0.0559 z m -34.342866,-6.71881 c 0.188237,-0.0722 0.169008,-0.5271 -0.03533,-0.83563 -0.116675,-0.17618 -0.167991,-0.39651 -0.168378,-0.72295 -8.44e-4,-0.68995 -0.08614,-0.7634 -0.978247,-0.84217 -0.414639,-0.0366 -3.556819,-0.0936 -6.982622,-0.1267 -7.026145,-0.0679 -6.510381,-0.11411 -6.772172,0.60743 -0.08155,0.22476 -0.259035,0.64137 -0.394417,0.92582 -0.445467,0.93595 -0.571563,0.87561 1.844418,0.88248 1.149811,0.003 2.166586,0.0386 2.2595,0.0785 0.189483,0.0814 11.018129,0.11344 11.227243,0.0332 z"
         id="path2700" />
      <path
         style="fill:#edb948;fill-opacity:1;stroke-width:0.0847107"
         d="m 145.75529,204.6933 v -2.96487 h 3.81198 3.81198 v 2.96487 2.96488 h -3.81198 -3.81198 z m -24.14254,2.79546 c -0.0699,-0.0452 -0.31194,-0.0827 -0.53791,-0.0834 -0.35342,-0.001 -0.4511,-0.0416 -0.69886,-0.28931 l -0.28802,-0.28802 v -2.22209 -2.2221 l 0.37005,-0.37005 0.37005,-0.37005 h 3.39308 3.39307 l 0.2561,0.2155 c 0.14086,0.11852 0.28028,0.29959 0.30982,0.40237 0.0296,0.10279 0.12689,0.34848 0.21631,0.54598 0.14424,0.31857 0.16259,0.56598 0.16259,2.19244 v 1.83335 l -0.37006,0.37005 -0.37005,0.37006 -3.03955,-0.001 c -1.81612,-7.8e-4 -3.0907,-0.0344 -3.16662,-0.0834 z"
         id="path4919" />
      <path
         style="fill:#f05829;fill-opacity:1;stroke-width:0.0847917"
         d="M 147.29248,212.22533 147,211.93285 v -1.29151 -1.29151 l 0.37041,-0.37041 0.3704,-0.3704 h 2.2196 2.2196 l 0.20812,0.20812 c 0.20258,0.20258 0.20813,0.24223 0.20813,1.48714 v 1.27901 l -0.33281,0.35708 -0.33281,0.35709 -0.87547,0.0684 c -0.48151,0.0376 -1.45929,0.0872 -2.17284,0.11018 l -1.29737,0.0418 z m -27.13755,-0.17377 -0.29808,-0.29809 0.0347,-1.04228 c 0.0442,-1.32832 0.13933,-1.73424 0.47726,-2.03618 l 0.26366,-0.23558 h 2.46148 2.46148 l 0.20812,0.20813 c 0.20366,0.20366 0.20813,0.23728 0.20813,1.56731 v 1.35918 l -0.24715,0.27691 -0.24714,0.27691 -1.46989,0.0644 c -0.80844,0.0354 -1.93891,0.0854 -2.51217,0.11089 l -1.04228,0.0464 z"
         id="path6395" />
    </g>
  </g>
</svg>
