<?xml version="1.0" encoding="UTF-8" standalone="no"?>
<!-- Created with Inkscape (http://www.inkscape.org/) -->

<svg
   width="100%"
   height="100%"
   viewBox="0 0 210 297"
   version="1.1"
   id="svg498"
   inkscape:version="1.2 (dc2aedaf03, 2022-05-15)"
   sodipodi:docname="login zaslon.svg"
   xmlns:inkscape="http://www.inkscape.org/namespaces/inkscape"
   xmlns:sodipodi="http://sodipodi.sourceforge.net/DTD/sodipodi-0.dtd"
   xmlns="http://www.w3.org/2000/svg"
   xmlns:svg="http://www.w3.org/2000/svg">
  <sodipodi:namedview
     id="namedview500"
     pagecolor="#ffffff"
     bordercolor="#000000"
     borderopacity="0.25"
     inkscape:showpageshadow="2"
     inkscape:pageopacity="0.0"
     inkscape:pagecheckerboard="0"
     inkscape:deskcolor="#d1d1d1"
     inkscape:document-units="mm"
     showgrid="false"
     inkscape:zoom="0.82772563"
     inkscape:cx="390.82999"
     inkscape:cy="265.78856"
     inkscape:window-width="1600"
     inkscape:window-height="837"
     inkscape:window-x="-8"
     inkscape:window-y="-8"
     inkscape:window-maximized="1"
     inkscape:current-layer="layer1" />
  <defs
     id="defs495">
    <pattern
       id="EMFhbasepattern"
       patternUnits="userSpaceOnUse"
       width="6"
       height="6"
       x="0"
       y="0" />
    <pattern
       id="EMFhbasepattern-4"
       patternUnits="userSpaceOnUse"
       width="6"
       height="6"
       x="0"
       y="0" />
    <pattern
       id="EMFhbasepattern-5"
       patternUnits="userSpaceOnUse"
       width="6"
       height="6"
       x="0"
       y="0" />
    <pattern
       id="EMFhbasepattern-58"
       patternUnits="userSpaceOnUse"
       width="6"
       height="6"
       x="0"
       y="0" />
    <pattern
       id="EMFhbasepattern-0"
       patternUnits="userSpaceOnUse"
       width="6"
       height="6"
       x="0"
       y="0" />
    <pattern
       id="EMFhbasepattern-3"
       patternUnits="userSpaceOnUse"
       width="6"
       height="6"
       x="0"
       y="0" />
    <pattern
       id="EMFhbasepattern-2"
       patternUnits="userSpaceOnUse"
       width="6"
       height="6"
       x="0"
       y="0" />
    <pattern
       id="EMFhbasepattern-06"
       patternUnits="userSpaceOnUse"
       width="6"
       height="6"
       x="0"
       y="0" />
  </defs>
  <g
     inkscape:label="Layer 1"
     inkscape:groupmode="layer"
     id="layer1"
     transform="translate(4.2614145,-35.161611)">
    <path
       style="fill:#d5eefb;fill-opacity:1;stroke-width:0.0845627"
       d="m 16.429551,155.90677 c -0.0042,-23.62683 -0.0076,-44.5561 -0.0076,-46.5095 0,-1.9534 0.0034,-5.28602 0.0076,-7.40583 l 0.0076,-3.854184 3.615057,-0.0018 c 1.988281,-0.001 4.547361,0.0025 5.686843,0.0078 1.139483,0.0053 37.400551,0.02831 80.580159,0.05116 57.64691,0.03052 78.53861,0.06666 78.62219,0.136025 0.0951,0.07897 0.11382,8.330529 0.11382,50.314369 v 50.2199 H 100.74619 16.437152 Z"
       id="path4905" />
    <path
       style="fill:#a3bff8;fill-opacity:1;stroke-width:0.0844856"
       d="m 177.74723,173.75239 c -0.99905,-0.01 -7.23408,-0.0581 -13.85564,-0.10697 -20.03007,-0.14776 -22.8956,-0.18529 -22.8956,-0.29987 0,-0.0558 -0.0695,-0.16443 -0.1545,-0.24133 -0.14199,-0.12849 -0.98554,-0.13982 -10.40741,-0.13982 h -10.25291 l -0.18638,0.17509 -0.18638,0.1751 -45.272335,-0.34193 c -24.89977,-0.18805 -48.15222,-0.36739 -51.6721,-0.39853 l -6.39979,-0.0566 v -23.01011 c 0,-21.85675 0.007,-23.01028 0.14785,-23.01354 0.0813,-0.002 0.27948,-0.11594 0.44036,-0.25346 0.16088,-0.13751 0.33733,-0.25002 0.39211,-0.25002 0.0548,0 0.28363,-0.15207 0.50855,-0.33794 0.22493,-0.18587 0.45031,-0.33794 0.50086,-0.33794 0.0505,0 0.28743,-0.14257 0.52642,-0.31683 1.04765,-0.76386 1.37027,-0.97125 2.00533,-1.28909 0.37091,-0.18563 0.74956,-0.38498 0.84144,-0.44299 0.71247,-0.44983 1.30237,-0.80448 1.48041,-0.89004 0.11617,-0.0558 0.42032,-0.25284 0.67589,-0.43782 0.25557,-0.18498 0.54475,-0.33729 0.64261,-0.33846 0.0979,-10e-4 0.35438,-0.13686 0.57002,-0.30151 0.21564,-0.16466 0.85792,-0.53248 1.42728,-0.81738 0.56937,-0.28491 1.15286,-0.60641 1.29665,-0.71446 0.14378,-0.10804 0.28794,-0.19645 0.32034,-0.19645 0.0624,0 1.01993,-0.45522 1.23466,-0.58697 0.29502,-0.18101 1.21916,-0.59582 1.32741,-0.59582 0.0647,0 0.25821,-0.0739 0.43005,-0.16413 0.41877,-0.21999 1.09553,-0.51176 1.187,-0.51176 0.0406,0 0.21731,-0.11405 0.39273,-0.25346 0.17541,-0.1394 0.39924,-0.2537 0.49741,-0.25401 0.0982,-3.4e-4 0.29253,-0.0761 0.43193,-0.16841 0.1394,-0.0923 0.33608,-0.16811 0.43706,-0.16842 0.10099,-3.4e-4 0.29108,-0.0877 0.42243,-0.19423 0.30492,-0.24727 1.09882,-0.65101 1.28157,-0.65174 0.077,-3.4e-4 0.25411,-0.0761 0.393509,-0.16841 0.1394,-0.0923 0.371791,-0.16811 0.516411,-0.16842 0.164369,-3.4e-4 0.38255,-0.0956 0.581899,-0.25401 0.17541,-0.1394 0.39925,-0.25371 0.49741,-0.25401 0.0982,-3.4e-4 0.29253,-0.0761 0.43193,-0.16842 0.1394,-0.0923 0.3295,-0.16836 0.42243,-0.16897 0.0929,-5.9e-4 0.28303,-0.0767 0.42243,-0.16897 0.1394,-0.0923 0.36751,-0.16836 0.50691,-0.16897 0.1394,-5.9e-4 0.36751,-0.0767 0.50691,-0.16897 0.13941,-0.0923 0.37179,-0.16811 0.51642,-0.16842 0.16436,-3.4e-4 0.382551,-0.0956 0.5819,-0.25401 0.19934,-0.15842 0.41753,-0.25367 0.58189,-0.25402 0.14463,-3e-4 0.37702,-0.0761 0.51642,-0.16841 0.19139,-0.12675 0.39829,-0.1683 0.84486,-0.16964 0.337611,-0.001 0.75454,-0.062 0.97158,-0.14204 0.46333,-0.17092 1.20206,-0.26884 2.70354,-0.35836 0.62731,-0.0374 1.31164,-0.11832 1.52074,-0.17982 0.42895,-0.12616 3.42715,-0.13621 6.04072,-0.0202 1.18394,0.0525 1.58443,0.10023 1.8083,0.21533 0.15816,0.0813 0.36726,0.1481 0.46467,0.14841 0.0974,3e-4 0.29117,0.0761 0.43057,0.16841 0.1394,0.0923 0.36856,0.16811 0.50924,0.16842 0.14068,3e-4 0.33077,0.052 0.42243,0.11488 0.35407,0.24291 0.98123,0.56156 1.10526,0.56156 0.0715,0 0.34578,0.20319 0.60952,0.45154 0.49095,0.46231 0.76267,0.63645 1.28213,0.82172 0.16264,0.058 0.39075,0.19055 0.50692,0.29455 0.11617,0.104 0.34428,0.26076 0.50691,0.34837 0.16264,0.0876 0.45652,0.26258 0.65309,0.38884 0.19656,0.12625 0.3824,0.22955 0.41298,0.22955 0.0306,0 0.22057,0.15207 0.42222,0.33794 0.20164,0.18587 0.42409,0.33794 0.49434,0.33794 0.0702,0 0.33763,0.1901 0.59418,0.42243 0.25656,0.23234 0.52507,0.42243 0.5967,0.42243 0.0716,0 0.41142,0.26613 0.75507,0.5914 0.34366,0.32527 0.68344,0.5914 0.75507,0.5914 0.0716,0 0.3373,0.18059 0.59036,0.4013 0.25307,0.22072 0.61666,0.51537 0.80799,0.65477 0.19133,0.1394 0.53721,0.41503 0.76864,0.61252 0.23142,0.19748 0.50842,0.35906 0.61555,0.35906 0.19972,0 0.56307,0.23542 1.18101,0.76518 0.33755,0.28939 1.26483,0.92453 1.34976,0.92453 0.0677,0 1.64305,1.0673 1.923,1.30287 0.14241,0.11983 0.35305,0.21788 0.46807,0.21788 0.14311,0 0.40643,0.18673 0.83397,0.5914 0.34365,0.32526 0.67861,0.59139 0.74435,0.59139 0.0657,0 0.26303,0.11406 0.43845,0.25346 0.17541,0.1394 0.37169,0.25346 0.43618,0.25346 0.0645,0 0.362,0.2186 0.66116,0.48579 0.79383,0.70899 1.08798,0.93429 1.34979,1.03383 0.27785,0.10564 0.58215,0.32821 1.17186,0.85713 0.23997,0.21524 0.58033,0.46785 0.75635,0.56135 0.17602,0.0935 0.49917,0.32746 0.71813,0.51991 0.21895,0.19245 0.63538,0.55764 0.92539,0.81155 0.29002,0.2539 0.58665,0.46163 0.65918,0.46163 0.0725,0 0.41304,0.26613 0.75669,0.5914 0.34366,0.32527 0.68252,0.5914 0.75303,0.5914 0.0705,0 0.26185,0.11735 0.4252,0.26078 0.3301,0.28983 0.62533,0.50883 1.3141,0.9748 0.25557,0.17289 0.55972,0.39894 0.67588,0.50232 0.11617,0.10338 0.34428,0.25965 0.50692,0.34725 0.32333,0.17417 0.72183,0.4398 1.43625,0.95736 0.25557,0.18515 0.5479,0.3367 0.64963,0.33678 0.10172,7e-5 0.36066,0.15221 0.57541,0.33809 0.21476,0.18586 0.44507,0.33794 0.51181,0.33794 0.0667,0 0.26403,0.12564 0.43841,0.27921 0.48931,0.43088 1.25446,0.90359 1.4626,0.90359 0.10315,0 0.36284,0.10511 0.57708,0.23357 0.21424,0.12847 0.48457,0.27616 0.60074,0.32821 0.11617,0.0521 0.463,0.21308 0.77074,0.35783 0.41055,0.19311 0.6811,0.26319 1.01615,0.26319 0.29898,0 0.52874,0.051 0.66552,0.14785 0.27785,0.19665 1.66605,0.28622 4.475416,0.28876 2.68422,0.002 3.11267,-0.0401 3.63301,-0.36023 0.33844,-0.20825 0.48677,-0.24544 0.9808,-0.24591 0.43873,-4.2e-4 0.64447,-0.0419 0.83551,-0.16842 0.2244,-0.14861 0.39876,-0.16798 1.52075,-0.16897 1.12198,-9.9e-4 1.29634,-0.0204 1.52074,-0.16897 0.1394,-0.0923 0.32949,-0.16836 0.42243,-0.16897 0.0929,-5.9e-4 0.28302,-0.0767 0.42242,-0.16897 0.1394,-0.0923 0.30041,-0.16811 0.3578,-0.16842 0.0574,-3.3e-4 0.2897,-0.11461 0.51626,-0.25401 0.22655,-0.1394 0.45467,-0.25346 0.50691,-0.25346 0.0523,0 0.28036,-0.11405 0.50691,-0.25345 0.22656,-0.1394 0.49191,-0.25346 0.58967,-0.25346 0.16358,0 0.75269,-0.28692 1.15301,-0.56156 0.0917,-0.0629 0.21921,-0.11432 0.28345,-0.11432 0.0642,0 0.27897,-0.10946 0.47718,-0.24323 0.19822,-0.13378 0.63362,-0.34133 0.96757,-0.46124 0.33394,-0.11992 0.72197,-0.31462 0.86227,-0.43267 0.16335,-0.13745 0.35805,-0.21464 0.54136,-0.21464 0.19401,0 0.37574,-0.0779 0.5638,-0.24171 0.26893,-0.23422 1.15383,-0.60315 1.44671,-0.60315 0.0793,0 0.30484,-0.1453 0.50128,-0.32289 0.37886,-0.3425 1.04702,-0.69094 1.32491,-0.69094 0.0918,0 0.29184,-0.10455 0.44447,-0.23233 0.15263,-0.12779 0.41058,-0.30525 0.57322,-0.39436 0.16263,-0.0891 0.40316,-0.25068 0.53451,-0.35906 0.13135,-0.10838 0.32968,-0.19705 0.44073,-0.19705 0.11501,0 0.38359,-0.15454 0.62402,-0.35906 0.63414,-0.53943 0.86925,-0.70824 1.19146,-0.85545 0.16115,-0.0736 0.36818,-0.18215 0.46005,-0.24116 0.82506,-0.52996 1.3223,-0.83036 1.56871,-0.94772 0.16054,-0.0765 0.501,-0.24989 0.75657,-0.38538 0.25556,-0.13549 0.54498,-0.24777 0.64314,-0.24952 0.0982,-0.002 0.32199,-0.11724 0.49741,-0.25664 0.17542,-0.13941 0.3656,-0.25346 0.42265,-0.25346 0.057,0 0.19439,-0.0701 0.3052,-0.15581 0.11082,-0.0857 0.38022,-0.22322 0.59866,-0.3056 0.21845,-0.0824 0.4648,-0.22451 0.54744,-0.31583 0.16961,-0.18741 0.64363,-0.40556 0.88125,-0.40556 0.0868,0 0.36768,-0.19009 0.62423,-0.42243 0.25654,-0.23233 0.52535,-0.42243 0.59734,-0.42243 0.072,0 0.32822,-0.18196 0.56939,-0.40437 0.24117,-0.22241 0.60958,-0.51599 0.81868,-0.6524 0.2091,-0.13642 0.48765,-0.33464 0.619,-0.44049 0.13135,-0.10584 0.32864,-0.19245 0.43841,-0.19245 0.11146,0 0.37202,-0.14922 0.59006,-0.33794 0.21475,-0.18587 0.44477,-0.33794 0.51115,-0.33794 0.0664,0 0.33061,-0.1901 0.58716,-0.42243 0.30229,-0.27376 0.54203,-0.42243 0.68119,-0.42243 0.15002,0 0.40301,-0.17821 0.83955,-0.5914 0.34366,-0.32527 0.67973,-0.5914 0.74683,-0.5914 0.11863,0 0.41711,-0.21467 1.20402,-0.86598 0.21053,-0.17425 0.439,-0.31682 0.50772,-0.31682 0.0687,0 0.38733,-0.23761 0.70804,-0.52803 0.86359,-0.78204 1.3498,-1.16168 1.48776,-1.16168 0.0676,0 0.28357,-0.14438 0.48002,-0.32086 0.19645,-0.17647 0.45222,-0.38668 0.56839,-0.46712 0.11617,-0.0804 0.49635,-0.35293 0.84486,-0.60552 0.3485,-0.25259 0.88787,-0.63143 1.1986,-0.84187 0.31072,-0.21043 0.58617,-0.41693 0.6121,-0.45888 0.0259,-0.0419 0.20873,-0.1605 0.40623,-0.26344 0.1975,-0.10295 0.47717,-0.29085 0.62149,-0.41756 0.14431,-0.1267 0.44863,-0.31907 0.67627,-0.42746 0.22764,-0.1084 0.53349,-0.3 0.67969,-0.42577 0.14619,-0.12577 0.46935,-0.32793 0.71813,-0.44924 0.24877,-0.12131 0.6044,-0.3349 0.79027,-0.47465 0.18586,-0.13975 0.45454,-0.30886 0.59706,-0.3758 0.14251,-0.0669 0.4648,-0.25717 0.7162,-0.42274 0.25139,-0.16556 0.50749,-0.30102 0.56911,-0.30102 0.0616,0 0.37474,-0.1715 0.69584,-0.3811 0.3211,-0.20961 0.68975,-0.42124 0.81924,-0.4703 0.12948,-0.0491 0.31146,-0.15561 0.4044,-0.23677 0.22516,-0.19666 1.03573,-0.60085 1.21172,-0.60424 0.077,-0.002 0.48032,-0.2296 0.89621,-0.50692 0.41588,-0.27732 0.84068,-0.50421 0.94398,-0.50421 0.1033,0 0.29561,-0.0907 0.42736,-0.20156 0.13174,-0.11085 0.37227,-0.26216 0.53451,-0.33624 0.16224,-0.0741 0.35201,-0.17082 0.42171,-0.21498 0.42635,-0.2701 1.93716,-0.9375 2.12165,-0.93724 0.1214,1.7e-4 0.36423,-0.11375 0.53965,-0.25315 0.17542,-0.1394 0.39924,-0.25371 0.49741,-0.25402 0.0982,-3e-4 0.29253,-0.0761 0.43193,-0.16841 0.14564,-0.0965 0.39723,-0.16833 0.5914,-0.16897 0.19417,-6.4e-4 0.44576,-0.0725 0.5914,-0.16897 0.1695,-0.11226 0.39652,-0.16805 0.68539,-0.16842 0.35224,-4.5e-4 0.49078,-0.0473 0.75087,-0.25401 0.20079,-0.15957 0.41678,-0.25346 0.58308,-0.25346 0.14529,0 0.47218,-0.076 0.72644,-0.16897 0.25569,-0.0935 0.67271,-0.16897 0.93313,-0.16897 0.28319,0 0.53619,-0.0494 0.63483,-0.12404 0.24543,-0.18564 8.1087,-0.18564 8.35413,0 0.0902,0.0682 0.26008,0.12404 0.37752,0.12404 0.21558,0 3.02733,1.34416 3.23354,1.54579 0.0612,0.0598 0.23084,0.15769 0.37699,0.21743 0.14613,0.0597 0.33768,0.17219 0.42566,0.24989 0.088,0.0777 0.33909,0.2321 0.55804,0.34311 0.21893,0.111 0.39806,0.23456 0.39806,0.27457 0,0.04 0.0475,0.0729 0.10561,0.0731 0.0581,2.1e-4 0.2271,0.11427 0.3756,0.25346 0.14849,0.13919 0.30078,0.25307 0.3384,0.25307 0.0376,0 0.22985,0.15207 0.42719,0.33794 0.19732,0.18587 0.39339,0.33794 0.43571,0.33794 0.0423,0 0.30862,0.22811 0.59179,0.50691 0.28316,0.27881 0.54511,0.50692 0.5821,0.50692 0.037,0 0.22683,0.158 0.42187,0.3511 l 0.35461,0.35111 v 31.24652 31.24651 l -2.72466,-0.0194 c -1.49856,-0.0106 -3.54206,-0.0275 -4.5411,-0.0375 z"
       id="path2663" />
    <path
       style="fill:#6b8bdc;fill-opacity:1;stroke-width:0.0844856"
       d="m 26.45463,198.69544 c -0.09293,-0.0399 -2.317018,-0.0759 -4.942408,-0.0798 -2.697388,-0.004 -4.826116,-0.0406 -4.894561,-0.0839 -0.104852,-0.0663 -0.121877,-4.92897 -0.126728,-36.19605 l -0.0056,-36.11939 0.295699,-0.30982 c 0.162635,-0.1704 0.447774,-0.37671 0.633643,-0.45847 0.185868,-0.0818 0.413979,-0.23454 0.506913,-0.33952 0.09293,-0.10497 0.321046,-0.26245 0.506914,-0.34993 0.185868,-0.0875 0.642091,-0.38504 1.013827,-0.66123 0.371737,-0.27618 0.980033,-0.65591 1.35177,-0.84382 0.790513,-0.39962 1.304187,-0.6943 1.776101,-1.0189 0.186916,-0.12857 0.472055,-0.29518 0.633642,-0.37024 0.161588,-0.0751 0.499887,-0.28829 0.751776,-0.47384 0.251888,-0.18554 0.53805,-0.33735 0.635916,-0.33735 0.09787,0 0.376129,-0.14892 0.618365,-0.33093 0.242235,-0.18201 0.916783,-0.56702 1.498992,-0.85559 0.582211,-0.28856 1.079067,-0.55783 1.104127,-0.59837 0.02506,-0.0406 0.356979,-0.22513 0.737602,-0.41017 0.380622,-0.18505 0.787087,-0.39027 0.903255,-0.45605 0.461893,-0.26154 1.120596,-0.55934 1.237221,-0.55934 0.06782,0 0.263912,-0.0756 0.435753,-0.16798 0.398921,-0.21447 1.082542,-0.5079 1.183284,-0.5079 0.04263,0 0.221024,-0.11406 0.396438,-0.25346 0.175414,-0.1394 0.379297,-0.25346 0.453074,-0.25346 0.193291,0 1.281153,-0.42777 1.54538,-0.60768 0.12334,-0.084 0.279792,-0.15269 0.34767,-0.15269 0.06788,0 0.22008,-0.076 0.338226,-0.16897 0.118147,-0.0929 0.285415,-0.16897 0.371709,-0.16897 0.08629,0 0.289398,-0.0705 0.451345,-0.15659 0.161946,-0.0861 0.446522,-0.18415 0.632391,-0.21783 0.185868,-0.0337 0.432989,-0.1487 0.549156,-0.2556 0.116168,-0.10691 0.349963,-0.21899 0.519546,-0.24908 0.169582,-0.0301 0.350888,-0.10599 0.402902,-0.16866 0.05201,-0.0627 0.240988,-0.13737 0.419945,-0.16598 0.178956,-0.0286 0.368994,-0.10459 0.422306,-0.16883 0.05331,-0.0642 0.282352,-0.14139 0.508976,-0.17145 0.226624,-0.0301 0.454485,-0.1058 0.506358,-0.16831 0.05187,-0.0625 0.268751,-0.13755 0.48195,-0.16677 0.229502,-0.0315 0.490261,-0.13949 0.639206,-0.26481 0.138363,-0.11643 0.354671,-0.21169 0.480681,-0.21169 0.126011,0 0.378253,-0.076 0.560539,-0.16897 0.200184,-0.10206 0.499995,-0.16937 0.757112,-0.16997 0.234128,-5.5e-4 0.634788,-0.0618 0.890357,-0.13603 0.612473,-0.17797 1.230052,-0.26371 2.661297,-0.36945 0.650539,-0.0481 1.467938,-0.16516 1.816441,-0.26021 0.577536,-0.15751 0.809441,-0.16939 2.619054,-0.1342 2.149653,0.0418 3.119259,0.13327 3.355484,0.31651 0.08287,0.0643 0.347532,0.2928 0.588142,0.50782 0.24061,0.21502 0.548955,0.41325 0.68521,0.4405 0.136255,0.0273 0.359029,0.14319 0.495052,0.25765 0.136024,0.11445 0.449216,0.27414 0.695984,0.35485 0.246767,0.0807 0.549482,0.22957 0.672701,0.33079 0.123218,0.10123 0.414126,0.31164 0.646461,0.4676 0.834223,0.55997 1.6612,1.33253 3.167759,2.95932 0.760782,0.8215 1.182293,1.3929 1.182889,1.60352 1.69e-4,0.0704 0.07056,0.26048 0.156366,0.42243 0.0858,0.16195 0.183319,0.40595 0.216701,0.54223 0.03338,0.13628 0.153272,0.3578 0.266423,0.49227 0.11315,0.13447 0.205727,0.34669 0.205727,0.4716 0,0.12491 0.07604,0.36897 0.168972,0.54237 0.09293,0.17339 0.169205,0.43896 0.169491,0.59015 2.54e-4,0.15118 0.06465,0.38894 0.143024,0.52834 0.09517,0.16927 0.158489,0.5392 0.190628,1.11375 0.04277,0.76464 0.07149,0.88514 0.258282,1.08375 0.189083,0.20105 0.217602,0.3266 0.284374,1.25185 0.09682,1.34165 0.08957,3.50614 -0.01689,5.04145 -0.08759,1.26309 -0.167475,1.76966 -0.391843,2.48463 -0.07158,0.22811 -0.130148,0.70789 -0.130148,1.06619 0,0.41882 -0.06034,0.84033 -0.168971,1.18038 -0.127233,0.39827 -0.168971,0.76156 -0.168971,1.4707 0,0.7568 -0.02876,0.98281 -0.146434,1.15067 -0.08054,0.11489 -0.174606,0.45602 -0.209039,0.75805 -0.112218,0.98436 -0.419753,2.28795 -0.669879,2.83952 -0.116813,0.2576 -0.157447,0.54658 -0.157447,1.11974 0,0.61114 -0.0353,0.83842 -0.168971,1.08781 -0.120261,0.22438 -0.168971,0.47668 -0.168971,0.87519 0,0.30796 -0.07942,0.8788 -0.17648,1.26853 -0.1859,0.74644 -0.185756,0.68414 -0.0074,3.20094 0.06748,0.95193 0.101611,1.10587 0.346143,1.56106 0.149205,0.27774 0.311771,0.55376 0.361257,0.61339 0.04949,0.0596 0.121384,0.27654 0.159773,0.48202 0.138588,0.74183 1.673873,2.35869 2.809128,2.95839 0.193395,0.10216 0.574095,0.3063 0.845999,0.45365 0.271905,0.14735 0.530366,0.26791 0.574359,0.26791 0.04399,0 0.23973,0.0782 0.434971,0.17368 0.19524,0.0955 0.545075,0.19509 0.77741,0.22127 0.232336,0.0262 0.50313,0.0978 0.601764,0.15917 0.462419,0.28768 1.172748,0.37522 3.044563,0.37522 1.686329,0 1.87528,-0.0148 2.163004,-0.16897 0.173395,-0.0929 0.428129,-0.16897 0.566074,-0.16897 0.283794,0 0.947733,-0.19829 1.283579,-0.38335 0.123337,-0.068 0.404888,-0.12356 0.625667,-0.12356 0.287367,0 0.475696,-0.0554 0.66285,-0.19492 0.519913,-0.38765 1.135383,-0.64994 1.525115,-0.64994 0.230759,0 0.488205,-0.0661 0.656318,-0.16865 0.152141,-0.0928 0.342234,-0.1688 0.422429,-0.16897 0.08019,-1.7e-4 0.270287,-0.0762 0.422428,-0.16898 0.15214,-0.0928 0.414409,-0.16879 0.582819,-0.16897 0.464853,-5e-4 1.158318,-0.25942 1.754367,-0.65508 0.157502,-0.10455 0.385613,-0.19177 0.506914,-0.19382 0.394253,-0.007 0.989949,-0.20373 1.331664,-0.44054 0.224921,-0.15587 0.44325,-0.23202 0.66762,-0.23286 0.183371,-6.8e-4 0.414579,-0.0482 0.513796,-0.10561 0.56701,-0.32802 1.408985,-0.738 1.515644,-0.738 0.06807,0 0.274323,-0.095 0.458345,-0.21121 0.184021,-0.11617 0.361102,-0.21122 0.393513,-0.21122 0.03241,0 0.384838,-0.16495 0.783171,-0.36657 0.398334,-0.20161 0.851593,-0.39151 1.007244,-0.422 0.155651,-0.0305 0.435203,-0.17597 0.621226,-0.32331 0.218429,-0.173 0.485344,-0.29113 0.753602,-0.33354 0.228458,-0.0361 0.512056,-0.14171 0.630216,-0.23465 0.118161,-0.093 0.355031,-0.2152 0.526379,-0.27168 0.171349,-0.0565 0.501635,-0.24263 0.733971,-0.41366 0.232335,-0.17104 0.574502,-0.37739 0.76037,-0.45857 0.319952,-0.13975 1.134101,-0.54527 1.689713,-0.84163 0.139401,-0.0744 0.311531,-0.13543 0.382511,-0.13572 0.15712,-6.8e-4 1.04258,-0.45316 1.33171,-0.68059 0.11522,-0.0906 0.2483,-0.16479 0.29573,-0.16479 0.0474,0 0.20388,-0.0886 0.34767,-0.19683 0.14379,-0.10826 0.54531,-0.33794 0.89228,-0.5104 0.34696,-0.17246 0.69272,-0.36957 0.76835,-0.43801 0.0756,-0.0684 0.35833,-0.18196 0.628236,-0.25226 0.26991,-0.0703 0.67061,-0.25986 0.89044,-0.42123 0.21983,-0.16137 0.42715,-0.29341 0.46071,-0.29341 0.0336,0 0.19954,-0.10804 0.36886,-0.24009 0.16932,-0.13205 0.73655,-0.45321 1.2605,-0.7137 0.52395,-0.26049 1.05183,-0.55165 1.17307,-0.64701 0.12124,-0.0954 0.255,-0.17339 0.29726,-0.17339 0.0423,0 0.32668,-0.17109 0.63207,-0.38019 0.30539,-0.2091 0.60399,-0.38019 0.66357,-0.38019 0.0596,0 0.3308,-0.12055 0.6027,-0.26791 0.2719,-0.14735 0.66448,-0.3575 0.87238,-0.46701 0.2079,-0.1095 0.47403,-0.28925 0.5914,-0.39944 0.27702,-0.26007 1.01837,-0.72432 1.15666,-0.72432 0.0592,0 0.39877,-0.19009 0.75467,-0.42243 0.35591,-0.23233 0.68133,-0.42242 0.72316,-0.42242 0.0418,0 0.31718,-0.18712 0.61187,-0.41582 0.29468,-0.2287 0.80258,-0.54524 1.12864,-0.70342 0.32606,-0.15818 0.75603,-0.42729 0.95548,-0.59801 0.19946,-0.17073 0.39554,-0.31041 0.43574,-0.31041 0.13055,0 1.36424,-0.86105 1.769,-1.23465 0.2167,-0.20003 0.50184,-0.3887 0.63364,-0.41928 0.1318,-0.0306 0.38259,-0.16728 0.55731,-0.3038 0.17472,-0.13653 0.44776,-0.30258 0.60674,-0.36901 0.15899,-0.0664 0.31,-0.15464 0.33557,-0.19601 0.0256,-0.0414 0.3038,-0.23399 0.6183,-0.42801 0.31449,-0.19403 0.97099,-0.63441 1.4589,-0.97863 0.4879,-0.34422 1.0962,-0.76447 1.35177,-0.9339 0.25557,-0.16943 0.57872,-0.41289 0.71812,-0.54103 0.13941,-0.12815 0.44676,-0.33588 0.68302,-0.46163 0.23626,-0.12575 0.52989,-0.32167 0.65252,-0.43538 0.12263,-0.1137 0.4575,-0.3442 0.74418,-0.51221 0.28667,-0.16802 0.65836,-0.42404 0.82597,-0.56894 0.16762,-0.14491 0.45107,-0.338 0.62989,-0.42909 0.17881,-0.0911 0.48296,-0.30428 0.67588,-0.47375 0.19292,-0.16947 0.50889,-0.38859 0.70215,-0.48694 0.19325,-0.0983 0.52938,-0.33287 0.74693,-0.52116 0.21755,-0.18829 0.55368,-0.4215 0.74693,-0.51825 0.19326,-0.0968 0.52247,-0.31804 0.73157,-0.49175 0.2091,-0.17372 0.51325,-0.38297 0.67588,-0.46501 0.16264,-0.082 0.46718,-0.29155 0.67675,-0.46558 0.20958,-0.17403 0.53545,-0.39519 0.72417,-0.49146 0.18871,-0.0963 0.5495,-0.3404 0.80175,-0.54249 0.25225,-0.2021 0.55755,-0.41051 0.67845,-0.46314 0.12091,-0.0526 0.42506,-0.26271 0.67589,-0.46685 0.25084,-0.20414 0.65374,-0.47865 0.89535,-0.61002 0.24161,-0.13138 0.69114,-0.48098 0.99895,-0.77691 0.30781,-0.29592 0.60795,-0.53804 0.66699,-0.53804 0.0591,0 0.32458,-0.1901 0.59008,-0.42243 0.26551,-0.23234 0.55921,-0.42243 0.65269,-0.42243 0.21752,0 0.81809,-0.41246 1.14849,-0.78876 0.14089,-0.16047 0.3844,-0.35384 0.54113,-0.4297 0.15674,-0.0759 0.56712,-0.36501 0.91197,-0.64254 0.34484,-0.27753 0.67534,-0.5046 0.73443,-0.5046 0.0591,0 0.32822,-0.19959 0.59805,-0.44355 0.83344,-0.75349 1.32463,-1.13237 1.68298,-1.29815 0.18929,-0.0876 0.56364,-0.34932 0.83189,-0.58165 0.43724,-0.37872 0.8762,-0.70609 1.94656,-1.45176 0.18587,-0.12949 0.53149,-0.37857 0.76805,-0.55351 0.23655,-0.17495 0.45805,-0.31809 0.49221,-0.31809 0.0342,0 0.28652,-0.17268 0.56082,-0.38375 0.27429,-0.21106 0.62307,-0.43587 0.77507,-0.49958 0.152,-0.0637 0.44745,-0.24597 0.65655,-0.40504 0.2091,-0.15907 0.58539,-0.39173 0.8362,-0.51702 0.25081,-0.1253 0.59974,-0.34164 0.77539,-0.48076 0.17566,-0.13912 0.44568,-0.29598 0.60005,-0.34857 0.15438,-0.0526 0.44271,-0.20577 0.64073,-0.34041 0.19804,-0.13464 0.48318,-0.28685 0.63365,-0.33825 0.15047,-0.0514 0.4906,-0.23969 0.75584,-0.41843 0.26524,-0.17874 0.5884,-0.3652 0.71813,-0.41436 0.12973,-0.0491 0.31191,-0.15577 0.40484,-0.23694 0.22837,-0.19944 1.038,-0.60149 1.21172,-0.60171 0.077,-1.1e-4 0.48222,-0.22813 0.90042,-0.50674 0.41821,-0.27861 0.843,-0.50664 0.94399,-0.50674 0.10098,-10e-5 0.2914,-0.0909 0.42314,-0.20173 0.13174,-0.11085 0.37227,-0.26085 0.53452,-0.33333 0.16224,-0.0725 0.39003,-0.18734 0.50619,-0.25524 0.60486,-0.35355 1.84422,-0.90144 2.03716,-0.90058 0.1214,5.4e-4 0.36424,-0.11307 0.53966,-0.25247 0.17541,-0.1394 0.39924,-0.2537 0.4974,-0.25401 0.0982,-3.1e-4 0.29254,-0.0761 0.43194,-0.16842 0.1394,-0.0923 0.38652,-0.16834 0.54915,-0.16893 0.16264,-5.9e-4 0.40976,-0.0638 0.54916,-0.14046 0.1394,-0.0767 0.489,-0.16634 0.77689,-0.1993 0.38437,-0.044 0.5937,-0.11907 0.78797,-0.28253 0.14629,-0.1231 0.36903,-0.2226 0.4983,-0.2226 0.12856,0 0.45475,-0.076 0.72487,-0.16897 0.27011,-0.0929 0.70378,-0.16923 0.96369,-0.16953 0.32942,-3.9e-4 0.54933,-0.0514 0.72602,-0.16842 0.24377,-0.16144 0.40351,-0.16785 4.18204,-0.16785 3.77852,0 3.93826,0.006 4.18203,0.16785 0.1394,0.0923 0.35998,0.16811 0.49018,0.16842 0.13019,3e-4 0.37731,0.0738 0.54916,0.16341 0.17183,0.0896 0.73064,0.36127 1.24177,0.60377 1.02526,0.48643 2.78373,1.51271 3.50616,2.04627 1.14235,0.84372 1.94757,1.53163 2.10488,1.79824 0.0938,0.15897 0.21294,0.28903 0.26477,0.28903 0.0518,0 0.26221,0.13765 0.46752,0.30588 l 0.37328,0.30588 v 44.06228 44.06227 l -27.22549,-0.0554 c -74.577956,-0.15171 -95.532102,-0.16679 -95.532102,-0.0687 0,0.11807 -35.505111,0.13118 -35.779658,0.0132 z"
       id="path630" />
    <path
       style="fill:#a3bff8;fill-opacity:1;stroke-width:0.0844856"
       d="m 87.071614,237.89451 c -0.03284,-0.0328 -0.450363,-0.0915 -0.92784,-0.13033 -0.477476,-0.0389 -1.229314,-0.11059 -1.670752,-0.15944 -0.441437,-0.0488 -1.163789,-0.12467 -1.605226,-0.16852 -0.441438,-0.0438 -1.16379,-0.12029 -1.605227,-0.16988 -0.441437,-0.0496 -1.258836,-0.12652 -1.816441,-0.17096 -0.557605,-0.0444 -1.260948,-0.11781 -1.562984,-0.16305 -0.302036,-0.0452 -0.910332,-0.1195 -1.351769,-0.16501 -0.441438,-0.0455 -0.954688,-0.14007 -1.140556,-0.21013 -0.185869,-0.0701 -0.574229,-0.12905 -0.863025,-0.13109 -0.288795,-0.002 -0.706188,-0.0652 -0.927539,-0.14034 -0.422169,-0.14333 -0.99366,-0.24829 -1.842318,-0.33835 -0.278802,-0.0296 -0.571672,-0.11019 -0.650822,-0.17912 -0.09191,-0.08 -0.433598,-0.14723 -0.945675,-0.18596 -0.440972,-0.0334 -0.856924,-0.10642 -0.924338,-0.16237 -0.06741,-0.0559 -0.326194,-0.12288 -0.575066,-0.14874 -0.645112,-0.067 -1.697408,-0.281 -1.800918,-0.36617 -0.04831,-0.0398 -0.311654,-0.11348 -0.585215,-0.16384 -0.27356,-0.0504 -0.53969,-0.1264 -0.591399,-0.16897 -0.05171,-0.0426 -0.317838,-0.11861 -0.591399,-0.16897 -0.27356,-0.0504 -0.542656,-0.12914 -0.59799,-0.17506 -0.05533,-0.0459 -0.345895,-0.11824 -0.64569,-0.16069 -0.299795,-0.0425 -0.695552,-0.16171 -0.879461,-0.26501 -0.195956,-0.11006 -0.544661,-0.20575 -0.84234,-0.23115 -0.279378,-0.0238 -0.571684,-0.0988 -0.649568,-0.16658 -0.07788,-0.0678 -0.382033,-0.14382 -0.675885,-0.16897 -0.293852,-0.0251 -0.591305,-0.0913 -0.661006,-0.14702 -0.16166,-0.12922 -0.97379,-0.38376 -1.224398,-0.38376 -0.105142,0 -0.23695,-0.0552 -0.292906,-0.12259 -0.05596,-0.0674 -0.279218,-0.14811 -0.496137,-0.17931 -0.21692,-0.0312 -0.451426,-0.10486 -0.521127,-0.16371 -0.0697,-0.0588 -0.259793,-0.13424 -0.422428,-0.16754 -0.162635,-0.0333 -0.409755,-0.11102 -0.549157,-0.17268 -0.356307,-0.15762 -1.040255,-0.37697 -1.175406,-0.37697 -0.06239,0 -0.157459,-0.053 -0.211271,-0.11789 -0.05381,-0.0648 -0.239056,-0.1441 -0.411652,-0.17612 -0.172596,-0.032 -0.370839,-0.10721 -0.440539,-0.16707 -0.0697,-0.0598 -0.335831,-0.15666 -0.5914,-0.21513 -0.255569,-0.0585 -0.60887,-0.17469 -0.785113,-0.25828 -0.176242,-0.0836 -0.442372,-0.17789 -0.591399,-0.20955 -0.149027,-0.0317 -0.327985,-0.10613 -0.397685,-0.16549 -0.0697,-0.0594 -0.259794,-0.13539 -0.422429,-0.16897 -0.162634,-0.0336 -0.352727,-0.10772 -0.422428,-0.16476 -0.0697,-0.057 -0.345264,-0.17038 -0.612363,-0.25186 -0.2671,-0.0815 -0.505472,-0.18026 -0.529715,-0.21949 -0.06699,-0.10839 -0.512278,-0.31452 -0.821361,-0.38022 -0.151486,-0.0322 -0.332457,-0.10711 -0.402158,-0.16647 -0.0697,-0.0594 -0.259793,-0.13555 -0.422428,-0.16932 -0.162635,-0.0338 -0.344816,-0.10101 -0.404847,-0.14942 -0.171362,-0.13818 -0.88014,-0.48387 -0.99209,-0.48387 -0.05556,0 -0.193707,-0.0729 -0.306996,-0.16203 -0.113289,-0.0891 -0.343307,-0.18778 -0.511153,-0.21927 -0.167845,-0.0315 -0.391057,-0.14867 -0.496026,-0.2604 -0.104969,-0.11174 -0.255136,-0.20316 -0.333704,-0.20316 -0.07857,0 -0.235541,-0.0729 -0.348829,-0.16202 -0.113289,-0.0891 -0.346947,-0.18847 -0.519241,-0.22079 -0.172293,-0.0323 -0.334156,-0.0926 -0.359694,-0.1339 -0.02554,-0.0413 -0.208994,-0.14919 -0.40768,-0.2397 -0.198684,-0.0905 -0.410136,-0.22348 -0.469892,-0.29548 -0.05976,-0.072 -0.1749,-0.13091 -0.255879,-0.13091 -0.08098,0 -0.237901,-0.0711 -0.348718,-0.15796 -0.110818,-0.0869 -0.334552,-0.1857 -0.497186,-0.21961 -0.174787,-0.0365 -0.451159,-0.20937 -0.675885,-0.4229 -0.332188,-0.31564 -0.478109,-0.38492 -1.155833,-0.54877 -0.465426,-0.11252 -0.833907,-0.2519 -0.921315,-0.34848 -0.08012,-0.0885 -0.210684,-0.16096 -0.29015,-0.16096 -0.07947,0 -0.235152,-0.0702 -0.34597,-0.15609 -0.110817,-0.0858 -0.296532,-0.17971 -0.4127,-0.20857 -0.116168,-0.0289 -0.314106,-0.14872 -0.439862,-0.26634 -0.125756,-0.11762 -0.263671,-0.21386 -0.306476,-0.21386 -0.04281,0 -0.128445,-0.061 -0.190308,-0.13553 -0.06186,-0.0745 -0.190079,-0.16953 -0.284923,-0.21108 -0.09484,-0.0416 -0.362536,-0.18723 -0.594872,-0.32373 -0.232335,-0.13649 -0.574502,-0.324 -0.76037,-0.41668 -0.185869,-0.0927 -0.473681,-0.29769 -0.639584,-0.45558 -0.313787,-0.29863 -0.897186,-0.71183 -1.261343,-0.89337 -0.360439,-0.17967 -0.58412,-0.31928 -0.745319,-0.46516 -0.0853,-0.0772 -0.190109,-0.14075 -0.232917,-0.14125 -0.04281,-5.1e-4 -0.264446,-0.17299 -0.492529,-0.38332 -0.228082,-0.21033 -0.522726,-0.44623 -0.654763,-0.52423 -0.132038,-0.078 -0.240069,-0.17163 -0.240069,-0.20808 0,-0.0365 -0.08068,-0.0663 -0.179294,-0.0663 -0.110089,0 -0.446568,-0.26088 -0.871746,-0.67588 -0.380847,-0.37174 -0.729662,-0.67589 -0.775143,-0.67589 -0.04548,0 -0.23119,-0.15207 -0.412685,-0.33794 -0.181496,-0.18587 -0.372192,-0.33794 -0.423768,-0.33794 -0.05158,0 -0.203048,-0.11406 -0.336603,-0.25346 -0.133555,-0.1394 -0.285629,-0.25346 -0.337942,-0.25346 -0.05231,0 -0.204388,-0.11405 -0.337943,-0.25345 -0.133555,-0.1394 -0.28403,-0.25346 -0.334389,-0.25346 -0.05036,0 -0.432143,-0.34217 -0.84841,-0.76037 -0.42472,-0.4267 -0.827495,-0.76037 -0.917839,-0.76037 -0.08897,0 -0.507848,-0.34015 -0.936354,-0.76037 -0.426449,-0.4182 -0.812116,-0.76037 -0.857037,-0.76037 -0.04492,0 -0.327698,-0.24972 -0.628392,-0.55493 -0.300694,-0.3052 -0.660771,-0.60555 -0.800173,-0.66743 -0.139401,-0.0619 -1.537164,-1.40023 -3.10614,-2.9741 l -2.852684,-2.8616 -0.05437,-3.46376 c -0.041,-2.61201 -0.02956,-3.5101 0.04651,-3.65224 l 0.100877,-0.18849 h 84.186943 84.18694 v 3.70079 3.70079 l -0.2786,0.27003 c -0.15323,0.14852 -0.3172,0.27003 -0.36438,0.27003 -0.0472,0 -0.19505,0.11406 -0.3286,0.25346 -0.13356,0.1394 -0.28529,0.25346 -0.33718,0.25346 -0.0519,0 -0.22536,0.13597 -0.3855,0.30217 -0.16013,0.16619 -0.44651,0.37341 -0.6364,0.46048 -0.18988,0.0871 -0.39414,0.21723 -0.45389,0.28923 -0.0598,0.072 -0.15331,0.13092 -0.20789,0.13092 -0.0546,0 -0.24773,0.15207 -0.42923,0.33794 -0.18149,0.18587 -0.36423,0.33794 -0.40608,0.33794 -0.0419,0 -0.30359,0.19009 -0.58164,0.42243 -0.27806,0.23233 -0.57237,0.42243 -0.65404,0.42243 -0.0817,0 -0.2173,0.076 -0.30141,0.16897 -0.0841,0.0929 -0.19029,0.16897 -0.23598,0.16897 -0.0457,0 -0.24804,0.15207 -0.44968,0.33794 -0.20165,0.18587 -0.4358,0.33794 -0.52034,0.33794 -0.0846,0 -0.30222,0.15208 -0.48371,0.33795 -0.18149,0.18586 -0.37267,0.33794 -0.42484,0.33794 -0.0522,0 -0.18703,0.0983 -0.29968,0.21847 -0.11265,0.12016 -0.36018,0.28936 -0.55007,0.376 -0.18988,0.0866 -0.39413,0.21644 -0.45389,0.28845 -0.0598,0.072 -0.1465,0.13091 -0.19275,0.13091 -0.0463,0 -0.21401,0.11405 -0.37279,0.25345 -0.15876,0.1394 -0.34665,0.25346 -0.41752,0.25346 -0.0709,0 -0.32616,0.18183 -0.56734,0.40407 -0.24116,0.22224 -0.55254,0.45887 -0.69194,0.52585 -0.1394,0.067 -0.37835,0.22731 -0.53098,0.3563 -0.15263,0.12899 -0.34128,0.23452 -0.41922,0.23452 -0.078,0 -0.29523,0.14619 -0.48286,0.32487 -0.18763,0.17868 -0.4742,0.37323 -0.63684,0.43233 -0.59872,0.21759 -0.80821,0.33522 -1.05349,0.59156 -0.13799,0.1442 -0.46115,0.36315 -0.71813,0.48655 -0.25699,0.12341 -0.55792,0.2932 -0.66874,0.37733 -0.11081,0.0841 -0.25922,0.15296 -0.32977,0.15296 -0.0706,0 -0.32929,0.19009 -0.57495,0.42243 -0.31464,0.29757 -0.51577,0.42242 -0.68049,0.42242 -0.15459,0 -0.33969,0.10337 -0.54622,0.30505 -0.17183,0.16778 -0.4008,0.34912 -0.50882,0.40297 -0.10802,0.0539 -0.24253,0.19044 -0.2989,0.30351 -0.1842,0.36945 -0.45088,0.5052 -0.99915,0.50861 -0.65527,0.004 -1.03938,0.14299 -1.4693,0.5314 -0.1912,0.17273 -0.4098,0.31406 -0.48579,0.31406 -0.076,0 -0.30314,0.15207 -0.50478,0.33794 -0.31792,0.29305 -0.41871,0.33795 -0.75866,0.33795 -0.31513,0 -0.44868,0.0497 -0.68072,0.25345 -0.15979,0.1403 -0.38514,0.25346 -0.50474,0.25346 -0.11884,0 -0.31274,0.076 -0.43088,0.16897 -0.11815,0.0929 -0.2712,0.16897 -0.34011,0.16897 -0.0689,0 -0.25521,0.11406 -0.41398,0.25346 -0.15877,0.1394 -0.34789,0.25345 -0.42026,0.25345 -0.0724,0 -0.22825,0.076 -0.34639,0.16898 -0.11815,0.0929 -0.30825,0.16897 -0.42243,0.16897 -0.11419,0 -0.30428,0.076 -0.42243,0.16897 -0.11815,0.0929 -0.2712,0.16897 -0.34011,0.16897 -0.0689,0 -0.25521,0.11406 -0.41398,0.25346 -0.15979,0.1403 -0.38514,0.25345 -0.50474,0.25345 -0.11884,0 -0.31273,0.076 -0.43088,0.16897 -0.11815,0.0929 -0.28107,0.16898 -0.36205,0.16898 -0.081,0 -0.19521,0.0578 -0.25386,0.12847 -0.11294,0.13609 -1.27954,0.71638 -1.44019,0.71638 -0.0521,0 -0.19135,0.076 -0.3095,0.16897 -0.11815,0.0929 -0.30921,0.16897 -0.4246,0.16897 -0.11539,0 -0.33969,0.11406 -0.49846,0.25346 -0.16139,0.14171 -0.38489,0.25346 -0.50691,0.25346 -0.12202,0 -0.34553,0.11175 -0.50692,0.25345 -0.20504,0.18003 -0.37575,0.25346 -0.58923,0.25346 -0.17262,0 -0.39198,0.0719 -0.51536,0.16897 -0.11815,0.0929 -0.30824,0.16897 -0.42243,0.16897 -0.11419,0 -0.30428,0.076 -0.42242,0.16898 -0.11816,0.0929 -0.2976,0.16897 -0.39877,0.16897 -0.10118,0 -0.34133,0.076 -0.53369,0.16897 -0.19234,0.0929 -0.40393,0.16897 -0.47018,0.16897 -0.0663,0 -0.16455,0.0531 -0.21842,0.11802 -0.10772,0.1298 -0.83206,0.38889 -1.0872,0.38889 -0.0886,0 -0.2246,0.0701 -0.30217,0.15585 -0.0776,0.0857 -0.30207,0.20715 -0.49889,0.26983 -0.19681,0.0627 -0.48272,0.22067 -0.63535,0.35107 -0.18157,0.15511 -0.37326,0.23708 -0.55442,0.23708 -0.15228,0 -0.43426,0.076 -0.62662,0.16897 -0.19235,0.0929 -0.4311,0.16897 -0.53058,0.16897 -0.0995,0 -0.27751,0.076 -0.39565,0.16897 -0.12143,0.0955 -0.34274,0.16897 -0.50909,0.16897 -0.20649,0 -0.38037,0.0756 -0.58295,0.25346 -0.19514,0.17134 -0.37837,0.25346 -0.56556,0.25346 -0.15228,0 -0.43426,0.076 -0.62662,0.16897 -0.19235,0.0929 -0.47213,0.16897 -0.62174,0.16897 -0.1496,0 -0.34043,0.0619 -0.42408,0.13763 -0.0836,0.0757 -0.29574,0.16904 -0.47132,0.20743 -0.17559,0.0384 -0.4333,0.094 -0.57271,0.12353 -0.1394,0.0296 -0.36751,0.10438 -0.50691,0.16628 -0.42689,0.18956 -1.00547,0.37643 -1.16947,0.37773 -0.0856,6.7e-4 -0.25231,0.0773 -0.37046,0.1702 -0.14184,0.11157 -0.34274,0.16897 -0.5914,0.16897 -0.24865,0 -0.44956,0.0574 -0.5914,0.16897 -0.11815,0.0929 -0.29522,0.16948 -0.39351,0.1701 -0.0983,5.9e-4 -0.50186,0.11417 -0.89683,0.25233 -0.39497,0.13816 -0.85355,0.2517 -1.01908,0.25233 -0.16552,5.9e-4 -0.45832,0.0772 -0.65068,0.1701 -0.19235,0.0929 -0.51015,0.16897 -0.70622,0.16897 -0.21558,0 -0.41861,0.0562 -0.51363,0.14221 -0.14374,0.13008 -0.43827,0.20227 -1.37691,0.33749 -0.18587,0.0268 -0.42861,0.11989 -0.53943,0.20692 -0.12442,0.0977 -0.33757,0.15824 -0.55729,0.15824 -0.1957,0 -0.48522,0.0648 -0.64338,0.14407 -0.26048,0.13052 -0.52933,0.19279 -1.42811,0.3308 -0.16263,0.025 -0.45686,0.11843 -0.65384,0.20769 -0.19698,0.0893 -0.46548,0.16229 -0.59666,0.16229 -0.13118,0 -0.39588,0.076 -0.58824,0.16897 -0.19234,0.0929 -0.46912,0.16897 -0.61506,0.16897 -0.14593,0 -0.362,0.076 -0.48014,0.16898 -0.18394,0.14468 -0.34274,0.16897 -1.10499,0.16897 -0.71578,0 -0.92096,0.0279 -1.04731,0.14221 -0.1607,0.14543 -0.67749,0.26014 -1.50364,0.33378 -0.25557,0.0228 -0.62583,0.11509 -0.82281,0.20514 -0.24836,0.11353 -0.54416,0.16372 -0.96494,0.16372 -0.459,0 -0.64651,0.036 -0.76992,0.14765 -0.10014,0.0906 -0.38007,0.17105 -0.72479,0.20825 -0.9833,0.10612 -1.57288,0.19549 -1.66241,0.25201 -0.0478,0.0302 -0.6325,0.0998 -1.29927,0.15477 -0.66678,0.0549 -1.33928,0.15293 -1.49444,0.21776 -0.17537,0.0733 -0.59485,0.11825 -1.10857,0.11888 -0.48057,5.9e-4 -1.02092,0.0552 -1.29112,0.13042 -0.49417,0.13764 -1.34528,0.25279 -2.78803,0.37721 -0.4879,0.0421 -1.24827,0.11887 -1.68971,0.17066 -0.44144,0.0518 -1.46794,0.11977 -2.28111,0.15107 -1.08104,0.0416 -1.53528,0.0909 -1.68971,0.18355 -0.18263,0.1095 -1.24625,0.13025 -7.858667,0.1533 -4.206098,0.0147 -7.674316,-1.7e-4 -7.707151,-0.033 z"
       id="path1924" />
    <path
       style="fill:#edd196;fill-opacity:1;stroke-width:0.0844541"
       d="m 112.94176,218.94095 c -2.78699,-1.23662 -5.07278,-2.25249 -5.07953,-2.25748 -0.007,-0.005 -0.91061,-8.57906 -2.00856,-19.05348 -1.09796,-10.47443 -2.3366,-22.27478 -2.75253,-26.22301 -0.41593,-3.94823 -0.75672,-7.34462 -0.75731,-7.54753 l -10e-4,-0.36894 2.34361,0.053 c 6.13269,0.13871 12.11039,0.24167 18.05206,0.31094 3.57663,0.0417 7.54809,0.11495 8.82546,0.1628 1.27737,0.0479 4.62175,0.12112 7.43196,0.16282 3.26327,0.0484 5.27731,0.11125 5.57397,0.17388 0.25547,0.0539 0.78754,0.12432 1.18236,0.1564 0.39482,0.0321 0.85087,0.11894 1.01345,0.19301 0.59941,0.27312 0.77437,0.32733 1.05636,0.32733 0.16362,0 0.35367,0.065 0.43941,0.15038 0.0831,0.0827 0.24609,0.19199 0.36222,0.24285 0.51536,0.22569 0.65332,0.29588 0.97122,0.49413 0.1858,0.11586 0.45183,0.26187 0.59118,0.32446 0.32408,0.14556 2.4914,2.38568 2.4914,2.57509 0,0.0785 0.0703,0.27516 0.15616,0.43704 0.0859,0.16189 0.17877,0.51881 0.2064,0.79315 0.0276,0.27435 0.0902,0.52354 0.13913,0.55376 0.0489,0.0302 0.14523,0.2428 0.21408,0.47241 0.17891,0.59664 0.42068,0.71381 1.46576,0.71037 0.53574,-0.002 0.86628,-0.0404 0.96106,-0.11245 0.17713,-0.13457 0.32002,-0.49303 0.32002,-0.80279 0,-0.15076 0.097,-0.32528 0.2785,-0.50123 l 0.2785,-0.26993 h 2.68733 2.68733 l 0.33324,0.33324 0.33323,0.33323 -0.0496,0.95469 c -0.0273,0.52508 -0.0773,1.92381 -0.11109,3.10828 -0.0496,1.73666 -0.0902,2.22949 -0.20941,2.54569 -0.0813,0.21566 -0.18104,0.71912 -0.22155,1.1188 -0.0405,0.39968 -0.10955,0.77429 -0.15342,0.83247 -0.0439,0.0582 -0.13087,0.26785 -0.19334,0.46592 -0.0625,0.19808 -0.16503,0.40284 -0.22791,0.45502 -0.0629,0.0522 -0.16529,0.21316 -0.22758,0.35772 -0.16915,0.39257 -0.29933,0.66204 -0.42801,0.88599 -0.15828,0.27547 -1.1598,1.27707 -1.27696,1.27707 -0.0522,0 -0.16371,0.076 -0.24778,0.16891 -0.0841,0.0929 -0.19735,0.16891 -0.25173,0.16891 -0.0544,0 -0.18818,0.0951 -0.29734,0.21126 -0.25476,0.27117 -0.6527,0.37886 -1.40224,0.37945 l -0.60004,4.7e-4 -0.43452,-0.45945 -0.43452,-0.45944 v -3.67277 c 0,-3.22629 -0.0161,-3.68892 -0.13272,-3.80549 -0.17956,-0.17957 -1.40351,-0.18905 -1.58031,-0.0123 -0.17566,0.17567 -0.24223,17.00111 -0.12689,32.07426 0.0838,10.95618 0.0802,11.81437 -0.0503,12.01359 -0.0773,0.11801 -0.18476,0.21455 -0.23875,0.21455 -0.054,0 -0.1892,0.0855 -0.30044,0.19003 l -0.20225,0.19002 -16.48288,0.0422 -16.48287,0.0422 -1.07244,0.57007 c -0.58984,0.31353 -1.1219,0.56931 -1.18236,0.5684 -0.0605,-9.1e-4 -2.39018,-1.01345 -5.17716,-2.25007 z m 38.32821,-6.59108 c 0.79511,-0.0642 0.8411,-0.0789 1.07679,-0.3429 l 0.2462,-0.27581 v -1.42836 c 0,-1.1859 -0.0225,-1.45088 -0.13271,-1.56107 -0.11434,-0.11433 -0.46051,-0.13271 -2.49984,-0.13271 h -2.36713 l -0.28715,0.28714 -0.28714,0.28715 v 1.448 c 0,1.43461 0.002,1.44997 0.21261,1.66062 l 0.21261,0.21261 1.49759,-0.0438 c 0.82367,-0.0241 1.87135,-0.074 2.32817,-0.11089 z m -26.9403,-0.17311 c 1.86437,-0.0824 1.7447,0.0524 1.7447,-1.96644 0,-1.25538 -0.022,-1.52678 -0.13271,-1.63749 -0.11491,-0.11491 -0.48193,-0.13272 -2.73541,-0.13272 -2.35429,0 -2.61976,0.0141 -2.7816,0.1478 -0.28442,0.23495 -0.43098,0.99153 -0.43098,2.22488 0,1.06122 0.007,1.10469 0.21335,1.31097 l 0.21335,0.21334 1.24348,-0.0487 c 0.68392,-0.0268 1.88354,-0.077 2.66582,-0.11162 z m 14.37443,-18.13224 c 0.15136,-0.15135 0.2073,-0.29893 0.2073,-0.54691 0,-0.19075 0.0739,-0.46081 0.16859,-0.61613 0.0927,-0.15208 0.16873,-0.33125 0.16891,-0.39814 1.7e-4,-0.0669 0.12273,-0.36525 0.27236,-0.66301 0.37917,-0.75457 1.45342,-1.76264 2.1453,-2.01313 1.14679,-0.41518 1.35346,-0.45372 2.43352,-0.45372 0.65098,0 1.06092,0.0326 1.06092,0.0845 0,0.0464 0.0928,0.0845 0.20615,0.0845 0.11338,0 0.22964,0.038 0.25835,0.0845 0.0287,0.0464 0.17784,0.0845 0.33141,0.0845 0.15357,0 0.36985,0.0675 0.48063,0.15002 0.11077,0.0825 0.30929,0.20475 0.44114,0.27164 0.29076,0.1475 1.74494,1.65195 1.74494,1.80526 0,0.06 0.0939,0.2946 0.20862,0.52124 0.11474,0.22664 0.23368,0.58462 0.26433,0.79551 0.0682,0.46963 0.23559,0.81441 0.45137,0.92989 0.0894,0.0478 0.64503,0.087 1.23482,0.087 h 1.07234 l 0.36893,-0.36893 0.36893,-0.36893 v -9.60221 c 0,-6.07017 -0.0303,-9.65875 -0.0823,-9.75593 -0.0453,-0.0846 -0.2187,-0.23422 -0.38544,-0.3326 l -0.30318,-0.17888 -15.67316,2.5e-4 c -11.33055,1.7e-4 -15.70436,0.0261 -15.78576,0.0937 -0.37571,0.31181 -0.36575,0.0381 -0.37126,10.20373 -0.003,5.28122 0.0202,9.66831 0.0512,9.74908 0.031,0.0808 0.19341,0.24 0.36091,0.35382 l 0.30456,0.20695 h 8.89414 8.89414 l 0.2073,-0.2073 z m 9.36453,0.0746 c 0.16406,-0.16406 0.16596,-0.32261 0.011,-0.91766 -0.19968,-0.76662 -1.41134,-2.14865 -2.26661,-2.5853 -0.47689,-0.24348 -0.51755,-0.24922 -1.76512,-0.24922 -1.19449,0 -1.3048,0.0138 -1.70767,0.21279 -0.23687,0.11703 -0.67771,0.42139 -0.97964,0.67636 -0.30192,0.25496 -0.67246,0.54301 -0.82342,0.64009 -0.18318,0.11781 -0.27448,0.2433 -0.27448,0.37728 0,0.11041 -0.0759,0.32519 -0.16859,0.47727 -0.21353,0.35022 -0.23539,1.16951 -0.0365,1.36839 0.11679,0.11679 0.59739,0.13271 4.00554,0.13271 3.40814,0 3.88874,-0.0159 4.00553,-0.13271 z"
       id="path3439" />
    <path
       style="fill:#000000;fill-opacity:1;stroke-width:0.0844673"
       d="m 129.60416,225.54174 c -4.67549,-0.12917 -32.460323,-0.29195 -79.906068,-0.46813 -7.469788,-0.0277 -8.474952,-0.0469 -9.038002,-0.17238 -0.813058,-0.18118 -1.481961,-0.53496 -4.434533,-2.34543 -0.232285,-0.14244 -0.726419,-0.48951 -1.098075,-0.77128 -0.371656,-0.28177 -0.738854,-0.53622 -0.815995,-0.56545 -0.189257,-0.0717 -1.205948,-0.77477 -1.675791,-1.15884 -0.209056,-0.1709 -0.614608,-0.46899 -0.901226,-0.66244 -0.571959,-0.38603 -0.943934,-0.8239 -0.811993,-0.95584 0.05008,-0.0501 0.760392,-0.063 1.847549,-0.0337 2.587602,0.0699 17.92344,0.20659 28.722921,0.25612 7.769047,0.0356 9.394978,0.0237 9.430699,-0.0694 0.05179,-0.13496 -0.207826,-0.90172 -0.396547,-1.17115 -0.07398,-0.10563 -0.134517,-0.30949 -0.134517,-0.45303 0,-0.14354 -0.07602,-0.41832 -0.168935,-0.61063 -0.09291,-0.19231 -0.168935,-0.48547 -0.168935,-0.65146 0,-0.44003 -0.02288,-0.44609 -2.745187,-0.72707 -0.952964,-0.0984 -1.874693,-0.37333 -2.369358,-0.70685 -0.739984,-0.49891 -1.614639,-1.38071 -1.862342,-1.87755 l -0.245067,-0.49155 -0.06341,-6.41951 c -0.142443,-14.42169 -0.159276,-19.75658 -0.06383,-20.22992 0.12221,-0.60607 0.506129,-1.87357 0.604955,-1.99724 0.04251,-0.0532 0.110542,-0.30103 0.151186,-0.55075 0.05122,-0.31472 0.192807,-0.63495 0.461415,-1.04359 0.213135,-0.32426 0.387594,-0.65816 0.387688,-0.74201 2.53e-4,-0.22051 0.313424,-0.90613 1.0868,-2.37924 0.145666,-0.27746 0.264847,-0.57809 0.264847,-0.66806 0,-0.09 0.145636,-0.35709 0.323636,-0.5936 0.178,-0.23651 0.420546,-0.62006 0.538991,-0.85235 0.118445,-0.23228 0.276657,-0.53637 0.351582,-0.67574 0.07493,-0.13937 0.137518,-0.29141 0.139097,-0.33787 0.0016,-0.0464 0.115844,-0.23377 0.253922,-0.41626 0.138079,-0.18249 0.251052,-0.36916 0.251052,-0.41482 0,-0.0457 0.202784,-0.35247 0.450631,-0.68181 0.247846,-0.32933 0.514961,-0.73182 0.593588,-0.89442 0.07863,-0.1626 0.369977,-0.57773 0.647444,-0.9225 0.277468,-0.34477 0.50545,-0.66786 0.506627,-0.71797 0.0012,-0.0501 0.181725,-0.32334 0.401219,-0.60717 0.219495,-0.28383 0.689126,-0.892 1.043626,-1.35148 0.354501,-0.45948 1.171722,-1.35043 1.816047,-1.9799 0.944275,-0.92249 1.243734,-1.16559 1.543905,-1.2533 0.204823,-0.0598 0.517652,-0.20052 0.695177,-0.31258 0.177525,-0.11207 0.352036,-0.20505 0.387802,-0.20663 0.03577,-0.002 0.21707,-0.0763 0.402898,-0.16606 0.185829,-0.0898 0.415905,-0.1645 0.511281,-0.16607 0.09538,-0.002 0.323438,-0.11044 0.506804,-0.24192 0.185231,-0.13282 0.558619,-0.28615 0.840196,-0.34504 0.278742,-0.0583 0.582825,-0.12524 0.675739,-0.14877 0.09291,-0.0235 0.511027,-0.0701 0.92914,-0.1035 0.613153,-0.049 0.8287,-0.10427 1.114296,-0.28588 l 0.35409,-0.22517 4.798416,-0.0414 c 2.639128,-0.0228 5.615636,-0.0797 6.614462,-0.12653 0.998826,-0.0468 2.39344,-0.10782 3.099143,-0.13556 l 1.283095,-0.0504 0.02615,-0.22628 0.02615,-0.22628 5.480685,-0.0217 5.48069,-0.0217 0.43202,0.2017 c 0.90179,0.42103 1.05746,0.47528 1.36371,0.47528 0.39883,0 1.32256,0.33137 2.1936,0.78691 0.54995,0.28761 0.88189,0.5578 1.7832,1.45147 1.05579,1.04686 1.34168,1.39466 1.7961,2.18509 0.44951,0.7819 1.53098,3.01054 1.53098,3.15498 0,0.0852 0.0656,0.24868 0.14589,0.36324 0.17755,0.2535 0.29643,1.62199 0.30802,3.54586 0.0131,2.18077 -0.19933,23.12776 -0.24331,23.98872 -0.0755,1.47785 -0.2,8.18012 -0.26051,14.02411 -0.0644,6.21757 -0.0598,6.30138 0.35196,6.489 0.15784,0.0719 4.77216,0.0969 17.89192,0.0969 h 17.67921 l 0.37169,-0.25186 c 0.45228,-0.30647 0.50201,-0.30967 0.74775,-0.0481 0.1514,0.16115 0.18085,0.25913 0.13333,0.44345 -0.0336,0.13013 -0.0892,0.52168 -0.1236,0.87011 -0.0724,0.73267 -0.34051,1.58615 -0.61637,1.96206 -0.2466,0.33603 -1.81841,1.90887 -2.14921,2.15062 -0.13919,0.10172 -0.36387,0.21077 -0.49928,0.24233 -0.13541,0.0316 -0.34123,0.11938 -0.45738,0.19516 -0.19169,0.12506 -1.0409,0.13853 -9.20693,0.14604 -4.94767,0.005 -10.04105,-0.0206 -11.31862,-0.0559 z m -34.342866,-6.71881 c 0.188237,-0.0722 0.169008,-0.5271 -0.03533,-0.83563 -0.116675,-0.17618 -0.167991,-0.39651 -0.168378,-0.72295 -8.44e-4,-0.68995 -0.08614,-0.7634 -0.978247,-0.84217 -0.414639,-0.0366 -3.556819,-0.0936 -6.982622,-0.1267 -7.026145,-0.0679 -6.510381,-0.11411 -6.772172,0.60743 -0.08155,0.22476 -0.259035,0.64137 -0.394417,0.92582 -0.445467,0.93595 -0.571563,0.87561 1.844418,0.88248 1.149811,0.003 2.166586,0.0386 2.2595,0.0785 0.189483,0.0814 11.018129,0.11344 11.227243,0.0332 z"
       id="path2700" />
    <path
       style="fill:#edb948;fill-opacity:1;stroke-width:0.0847107"
       d="m 145.75529,204.6933 v -2.96487 h 3.81198 3.81198 v 2.96487 2.96488 h -3.81198 -3.81198 z m -24.14254,2.79546 c -0.0699,-0.0452 -0.31194,-0.0827 -0.53791,-0.0834 -0.35342,-0.001 -0.4511,-0.0416 -0.69886,-0.28931 l -0.28802,-0.28802 v -2.22209 -2.2221 l 0.37005,-0.37005 0.37005,-0.37005 h 3.39308 3.39307 l 0.2561,0.2155 c 0.14086,0.11852 0.28028,0.29959 0.30982,0.40237 0.0296,0.10279 0.12689,0.34848 0.21631,0.54598 0.14424,0.31857 0.16259,0.56598 0.16259,2.19244 v 1.83335 l -0.37006,0.37005 -0.37005,0.37006 -3.03955,-0.001 c -1.81612,-7.8e-4 -3.0907,-0.0344 -3.16662,-0.0834 z"
       id="path4919" />
    <path
       style="fill:#f05829;fill-opacity:1;stroke-width:0.0847917"
       d="M 147.29248,212.22533 147,211.93285 v -1.29151 -1.29151 l 0.37041,-0.37041 0.3704,-0.3704 h 2.2196 2.2196 l 0.20812,0.20812 c 0.20258,0.20258 0.20813,0.24223 0.20813,1.48714 v 1.27901 l -0.33281,0.35708 -0.33281,0.35709 -0.87547,0.0684 c -0.48151,0.0376 -1.45929,0.0872 -2.17284,0.11018 l -1.29737,0.0418 z m -27.13755,-0.17377 -0.29808,-0.29809 0.0347,-1.04228 c 0.0442,-1.32832 0.13933,-1.73424 0.47726,-2.03618 l 0.26366,-0.23558 h 2.46148 2.46148 l 0.20812,0.20813 c 0.20366,0.20366 0.20813,0.23728 0.20813,1.56731 v 1.35918 l -0.24715,0.27691 -0.24714,0.27691 -1.46989,0.0644 c -0.80844,0.0354 -1.93891,0.0854 -2.51217,0.11089 l -1.04228,0.0464 z"
       id="path6395" />
  </g>
</svg>
