<?xml version="1.0" encoding="UTF-8" standalone="no"?>
<!-- Created with Inkscape (http://www.inkscape.org/) -->

<svg
   width="100%"
   height="100%"
   viewBox="0 0 210 297"
   version="1.1"
   id="svg6601"
   xml:space="preserve"
   inkscape:version="1.2 (dc2aedaf03, 2022-05-15)"
   sodipodi:docname="logo gotovi.svg"
   xmlns:inkscape="http://www.inkscape.org/namespaces/inkscape"
   xmlns:sodipodi="http://sodipodi.sourceforge.net/DTD/sodipodi-0.dtd"
   xmlns="http://www.w3.org/2000/svg"
   xmlns:svg="http://www.w3.org/2000/svg"><sodipodi:namedview
     id="namedview6603"
     pagecolor="#ffffff"
     bordercolor="#000000"
     borderopacity="0.25"
     inkscape:showpageshadow="2"
     inkscape:pageopacity="0.0"
     inkscape:pagecheckerboard="0"
     inkscape:deskcolor="#d1d1d1"
     inkscape:document-units="mm"
     showgrid="false"
     inkscape:zoom="0.5852904"
     inkscape:cx="352.81631"
     inkscape:cy="562.11412"
     inkscape:window-width="1600"
     inkscape:window-height="837"
     inkscape:window-x="-8"
     inkscape:window-y="-8"
     inkscape:window-maximized="1"
     inkscape:current-layer="layer1" /><defs
     id="defs6598"><pattern
       id="EMFhbasepattern"
       patternUnits="userSpaceOnUse"
       width="6"
       height="6"
       x="0"
       y="0" /><pattern
       id="EMFhbasepattern-5"
       patternUnits="userSpaceOnUse"
       width="6"
       height="6"
       x="0"
       y="0" /></defs><g
     inkscape:label="Layer 1"
     inkscape:groupmode="layer"
     id="layer1"><g
       id="layer2"
       inkscape:label="logo"
       transform="matrix(1.2475038,0,0,1.2475038,-8.9454204,-34.565392)"><g
         id="g11390"
         inkscape:label="smart"
         style="fill:#eff1f4;fill-opacity:1"><path
           style="display:inline;fill:#eff1f4;fill-opacity:1;stroke-width:0.0624232"
           d="m 136.77718,115.55107 c -0.91658,-0.18823 -2.26914,-0.5471 -2.39345,-0.63503 -0.3418,-0.24179 -1.08396,-1.03733 -1.35827,-1.45599 -0.0507,-0.0773 -0.1678,-0.47397 -0.26027,-0.88137 l -0.16812,-0.74073 -0.001,-6.4608 c -0.001,-6.100529 -0.007,-6.472269 -0.11339,-6.666439 -0.16516,-0.302495 -0.41573,-0.425988 -0.95723,-0.471761 -0.87222,-0.07373 -1.03694,-0.25269 -1.07365,-1.166487 -0.0399,-0.992333 0.14308,-1.197304 1.14438,-1.282187 1.06966,-0.09068 1.37148,-0.614259 2.09194,-3.628945 0.48748,-2.039792 1.09497,-2.294097 2.45076,-1.02592 0.57552,0.538342 0.61738,0.702604 0.66317,2.602729 0.0552,2.292137 -0.24961,2.097498 3.30882,2.112644 3.38621,0.01441 3.42714,0.02719 3.48806,1.088893 0.0341,0.594106 -0.0527,0.929923 -0.30197,1.168145 l -0.19282,0.184297 h -2.92424 -2.92426 l -0.17674,0.130916 c -0.3147,0.233095 -0.31601,0.259766 -0.30577,6.236245 l 0.01,5.55566 0.12738,0.46818 c 0.46326,1.70271 0.91189,2.14659 2.27405,2.24998 0.77203,0.0586 0.71615,0.0662 1.83363,-0.25065 2.02863,-0.57526 2.38554,1.80143 0.38303,2.55066 -0.91231,0.34134 -3.60714,0.52667 -4.62342,0.31796 z m -40.02179,-0.40464 c -2.06106,-0.19664 -3.67627,-1.55221 -4.01172,-3.36683 -0.10138,-0.54842 -0.0865,-2.66652 0.0219,-3.12524 0.4143,-1.7524 1.99466,-3.42707 3.655,-3.87312 0.29183,-0.0784 0.67962,-0.20132 0.86176,-0.27315 0.71897,-0.28355 2.089225,-0.40158 4.7251,-0.40702 2.5143,-0.005 2.61186,-0.10525 2.28094,-2.33975 -0.37052,-2.501849 -1.1082,-3.430858 -2.96098,-3.728925 -1.942275,-0.312467 -2.93584,-0.06808 -3.80461,0.935806 -1.01968,1.178269 -2.62537,0.935807 -3.37165,-0.509124 -0.993,-1.922631 -0.76889,-2.656696 0.86076,-2.819407 0.61496,-0.0614 1.59731,-0.197897 2.53229,-0.351861 1.306255,-0.2151 4.80989,-0.242851 5.77414,-0.04573 0.24032,0.04913 0.71564,0.146224 1.05625,0.215764 1.75114,0.357523 2.78431,1.052737 3.40119,2.288655 0.55487,1.111673 0.52231,0.699135 0.54066,6.850362 0.0222,7.43329 0.0227,7.43724 1.03669,8.18461 1.07873,0.79506 0.63088,2.02225 -0.8277,2.26803 -1.63846,0.2761 -2.76558,0.0179 -3.2562,-0.74584 -0.491,-0.76435 -0.82355,-0.84732 -1.57798,-0.39368 -0.23944,0.14397 -0.63197,0.31665 -0.8723,0.38374 -0.24033,0.0671 -0.65218,0.20908 -0.91524,0.31554 -1.22707,0.49658 -3.303275,0.71321 -5.14833,0.53717 z m 4.75269,-2.67835 c 2.07772,-0.59332 2.62685,-1.32535 2.85033,-3.79965 0.19906,-2.20398 -0.0519,-2.35691 -3.72425,-2.26995 -3.43182,0.0812 -4.68028,1.83958 -3.38736,4.77074 0.48093,1.0903 2.662765,1.75533 4.26128,1.29886 z m 18.62443,2.68254 c -0.0123,-0.0108 -1.35354,-0.0366 -2.98057,-0.0574 -3.65326,-0.0467 -3.68982,-0.0574 -3.68982,-1.07568 0,-0.72494 0.36788,-1.03928 1.31979,-1.12775 0.50814,-0.0472 0.77681,-0.19457 0.90225,-0.49481 0.24011,-0.57466 0.35153,-12.0758 0.12621,-13.028142 -0.22731,-0.960776 -0.70514,-1.558951 -1.38069,-1.728419 -0.69705,-0.174862 -1.03693,-0.853257 -0.74049,-1.477974 0.24109,-0.508065 0.55372,-0.550952 4.42346,-0.606834 0.92165,-0.01331 1.2405,0.228404 1.35075,1.02396 0.12858,0.927836 0.43091,1.023846 1.31598,0.417907 0.22554,-0.154415 0.56051,-0.329643 0.74437,-0.389398 0.18386,-0.05975 0.65154,-0.233002 1.0393,-0.384994 1.41662,-0.555286 4.37915,-0.993785 5.10368,-0.755418 1.19266,0.392382 0.20138,3.634813 -1.22751,4.01511 -0.81303,0.21639 -1.35533,0.1128 -1.84779,-0.352937 -0.80892,-0.765043 -1.71434,-0.717797 -3.03428,0.15833 -0.53656,0.356147 -1.05133,1.369109 -1.25513,2.469829 -0.25297,1.36636 -0.25457,1.40546 -0.2429,5.93132 0.0143,5.54372 -0.0691,5.23223 1.41981,5.30313 1.44607,0.0689 2.09873,0.8181 1.50372,1.72621 -0.19636,0.29968 -2.58814,0.66385 -2.85014,0.43396 z m -34.916871,-0.42304 c -0.27466,-0.0277 -0.64544,-0.066 -0.82396,-0.0852 -0.53442,-0.0573 -0.93218,-0.41864 -1.08766,-0.988 -0.0513,-0.18794 -0.053,-1.59825 -0.006,-5.31215 0.0646,-5.12999 0.0391,-6.38403 -0.14411,-7.0921 -0.0499,-0.19271 -0.1443,-0.61694 -0.20984,-0.94272 -0.324,-1.610649 -1.503952,-2.530567 -3.262771,-2.54373 -0.608729,-0.0046 -1.856524,0.3577 -2.05444,0.596439 -0.049,0.05911 -0.278766,0.25884 -0.510593,0.443852 -0.551556,0.44018 -0.637903,0.626917 -0.894169,1.933759 l -0.213695,1.08974 v 4.47627 c 0,6.25873 -0.0015,6.25205 1.378118,6.25205 1.123596,0 1.43038,1.37862 0.430268,1.93352 -0.312639,0.17346 -0.169751,0.16585 -2.713522,0.14467 -0.858319,-0.007 -1.771258,-0.0105 -2.028754,-0.008 -1.294094,0.0151 -2.417904,-0.0982 -2.592415,-0.26126 -0.659708,-0.6164 -0.354671,-1.63873 0.569078,-1.90727 0.754114,-0.21923 0.751289,-0.209 0.844025,-3.05448 0.309303,-9.490472 -0.06312,-11.138604 -2.643277,-11.697616 -2.207555,-0.478285 -4.034104,0.717502 -4.328183,2.833526 -0.213807,1.53844 -0.227098,10.35077 -0.01684,11.16811 0.120589,0.46877 0.297327,0.60737 1.006227,0.78908 0.83935,0.21515 0.930545,1.66396 0.122125,1.94018 -0.373814,0.12773 -7.21065,0.0795 -7.49186,-0.0528 -1.051586,-0.4949 -0.528305,-1.91388 0.744673,-2.01933 0.976288,-0.0809 1.049452,-0.20313 1.118299,-1.86872 0.02625,-0.63516 0.06492,-1.32337 0.08593,-1.52937 0.106875,-1.048 0.134475,-8.3757 0.03609,-9.581962 -0.109788,-1.346073 -0.424045,-1.872967 -1.400282,-2.347758 -0.911181,-0.443151 -1.133582,-1.492096 -0.397109,-1.872941 0.361616,-0.186999 0.543779,-0.204604 2.57287,-0.248652 l 2.017062,-0.04379 0.279091,0.135106 c 0.336555,0.162923 0.421072,0.326533 0.478902,0.927062 0.08157,0.847032 0.471553,0.983561 1.26257,0.442009 0.22564,-0.154479 0.618243,-0.359624 0.872453,-0.455879 0.254209,-0.09625 0.741747,-0.300163 1.083417,-0.453129 2.662199,-1.191866 6.590555,-0.759371 7.697201,0.847429 0.474652,0.689174 1.115508,0.680044 2.077552,-0.0296 0.286178,-0.211095 0.584344,-0.371486 0.803651,-0.432303 0.530748,-0.147184 0.993257,-0.306414 1.441073,-0.496125 1.502315,-0.636436 5.000645,-0.588964 5.809895,0.07884 0.15699,0.129554 0.48406,0.343984 0.72681,0.476512 0.5317,0.29027 0.62439,0.408647 1.023901,1.307564 0.55389,1.246299 0.51396,0.695518 0.53262,7.346777 0.0216,7.69978 -0.007,7.45308 0.92692,7.96055 0.80997,0.44005 1.0274,1.04186 0.64735,1.79178 -0.2228,0.43965 -1.78614,0.60957 -3.768511,0.4096 z m -40.450223,-0.0479 c -3.263385,-0.26757 -3.699004,-0.3663 -4.419395,-1.00161 -0.788239,-0.69516 -0.877493,-1.93874 -0.202583,-2.82265 0.387277,-0.5072 0.770748,-0.52487 1.660974,-0.0766 0.235227,0.11845 0.646553,0.27517 0.914055,0.34825 0.267504,0.0731 0.739184,0.21546 1.048178,0.31638 2.915985,0.95243 5.745805,0.5448 6.4703,-0.93205 0.452707,-0.92282 0.02461,-2.49267 -0.821001,-3.01065 -0.120165,-0.0736 -0.401069,-0.24561 -0.624232,-0.38222 -0.223163,-0.13661 -0.588339,-0.33248 -0.811502,-0.43525 -0.223163,-0.10277 -0.616429,-0.29496 -0.873924,-0.42708 -0.257496,-0.13212 -0.622671,-0.2896 -0.811502,-0.34995 -0.18883,-0.0603 -0.582096,-0.22819 -0.873924,-0.37297 -0.291829,-0.14478 -0.800603,-0.35252 -1.13061,-0.46165 -0.357094,-0.11809 -0.786725,-0.31945 -1.061194,-0.49737 -0.25365,-0.16442 -0.67186,-0.40855 -0.929355,-0.54251 -0.951895,-0.49522 -1.862029,-1.58449 -2.116103,-2.53259 -1.233399,-4.602576 2.29068,-7.39597 9.045076,-7.169663 1.811485,0.06069 1.789522,0.05724 3.185849,0.501199 1.797889,0.571637 2.343491,1.819423 1.388971,3.176559 -0.5286,0.751566 -0.898169,0.792016 -2.202739,0.241112 -1.278434,-0.539867 -2.171228,-0.841818 -2.71941,-0.91973 -0.272461,-0.03872 -0.68825,-0.115489 -0.923975,-0.170586 -1.512041,-0.353422 -3.433608,0.288601 -3.719789,1.242835 -0.489917,1.633564 0.343194,2.849764 2.569194,3.750574 0.387894,0.15698 1.049174,0.42778 1.469512,0.6018 0.420337,0.17401 1.108552,0.45722 1.529368,0.62935 0.805962,0.32967 1.724752,0.82415 2.130779,1.14677 0.133123,0.10578 0.470209,0.33391 0.749078,0.50696 1.622986,1.00712 2.185835,3.25205 1.469776,5.86222 -0.338488,1.23385 -1.743825,2.4852 -3.610408,3.21479 -1.145537,0.44776 -3.915185,0.71914 -5.779464,0.56629 z"
           id="path1065"
           inkscape:label="smart" /></g><g
         id="g11387"
         inkscape:label="sivo"><path
           style="display:inline;fill:#6e7172;fill-opacity:1;stroke-width:34.0864"
           d="m 478.30076,765.97154 c -22.07624,-4.80294 -31.88106,-16.87659 -34.47264,-42.44961 -0.73246,-7.22788 -1.52926,-13.838 -1.77065,-14.68914 -0.33293,-1.17398 -4.00554,-1.46561 -15.21442,-1.20813 l -14.77554,0.33941 -1.50506,7.24877 c -0.8278,3.98683 -1.52881,12.29508 -1.5578,18.46279 -0.0574,12.20972 1.65818,18.2606 6.22606,21.95945 2.42048,1.95998 2.51802,2.41393 0.93083,4.33156 -2.51656,3.04047 -10.72787,6.53394 -15.43131,6.56519 -3.67441,0.0244 -4.23618,-0.50406 -7.03532,-6.61818 -3.56748,-7.79243 -4.9137,-8.1178 -14.08028,-3.40314 -5.10735,2.62687 -8.39614,3.34039 -17.34285,3.7626 -6.76866,0.31942 -12.84541,-0.0464 -15.70568,-0.94537 -19.16918,-6.02514 -33.00447,-21.07623 -37.35694,-40.63976 -1.09047,-4.90145 -2.60767,-8.94349 -3.37156,-8.98231 -10.49829,-0.53359 -28.07853,0.47304 -28.82723,1.65062 -1.09148,1.71675 -1.04202,25.2462 0.0729,34.66386 0.74598,6.3015 0.97383,6.66183 4.411,6.976 7.95166,0.7268 9.06098,1.34944 9.06098,5.08582 0,5.66591 -2.49882,6.21954 -24.45522,5.41828 -23.41146,-0.85438 -24.69042,-1.06595 -25.70146,-4.25145 -1.14637,-3.61191 1.4925,-5.97987 6.66401,-5.97987 2.49516,0 5.11722,-0.69953 5.8268,-1.55452 1.52232,-1.83429 3.33491,-34.13298 2.17491,-38.75481 l -0.79897,-3.18334 h -12.56354 c -13.37133,0 -16.38554,-0.5516 -16.38554,-2.99856 0,-2.07324 5.58013,-3.04209 17.52097,-3.04209 7.41571,0 10.35787,-0.46717 11.48343,-1.82339 2.1315,-2.56829 1.08533,-33.45806 -1.22753,-36.24488 -0.90224,-1.08714 -3.71553,-3.03524 -6.25175,-4.32913 -5.08362,-2.59347 -6.12122,-6.24282 -2.349,-8.26166 3.30337,-1.76791 27.0542,-1.8501 30.31512,-0.10491 2.65757,1.42229 2.68567,1.71652 2.29076,23.98773 -0.21989,12.40128 0.0318,23.22736 0.55925,24.05795 0.67569,1.06396 5.03485,1.51016 14.7534,1.51016 15.5235,0 15.90206,-0.21113 18.57357,-10.35863 3.85661,-14.64904 16.89612,-28.06639 32.23757,-33.17169 9.84759,-3.27707 22.1905,-2.81101 34.04823,1.28564 11.44143,3.95282 11.47623,3.88747 10.9308,-20.52107 -0.27178,-12.16226 -0.99854,-20.97085 -1.85581,-22.49285 -0.77498,-1.37594 -3.61673,-3.49722 -6.31499,-4.71397 -5.3848,-2.42821 -6.47402,-5.75358 -2.56909,-7.84344 1.28526,-0.68785 7.80916,-1.25063 14.49756,-1.25063 18.449,0 16.99324,-4.13316 16.99324,48.24654 0,25.28431 0.49202,44.70816 1.17823,46.513 1.17699,3.09573 1.19371,3.09895 16.00772,3.08047 8.15621,-0.0101 15.51229,-0.452 16.34682,-0.98183 0.83453,-0.52983 2.35529,-4.18049 3.37947,-8.11258 3.48991,-13.39865 7.5715,-20.59289 16.4177,-28.93794 4.55657,-4.29845 8.28468,-8.28156 8.28468,-8.85136 0,-2.17741 17.06663,-4.11474 28.82692,-3.27231 17.56424,1.25817 28.89729,7.52052 34.33048,18.9701 2.72958,5.75215 4.91903,20.82509 4.06834,28.00782 -1.60415,13.54453 -4.99935,14.66105 -40.97355,13.47432 -29.09167,-0.95969 -29.87658,-0.7989 -29.87658,6.1205 0,16.79706 8.67171,31.13451 20.82438,34.43016 3.03089,0.82194 9.87357,1.16828 16.62764,0.84161 9.37607,-0.45349 13.13606,-1.25525 20.53821,-4.37947 10.17204,-4.29331 11.26745,-3.92803 12.80545,4.27023 1.24279,6.62467 -1.53074,9.35484 -12.51418,12.31849 -11.22045,3.02759 -34.77607,3.41562 -46.92291,0.77295 z M 379.1757,752.79443 c 3.58185,-1.58408 6.89182,-3.49395 7.35548,-4.24417 0.97404,-1.57603 -0.31354,-13.5085 -1.69966,-15.75129 -0.68708,-1.11172 -2.78548,-0.28264 -7.93912,3.13674 -6.60666,4.38344 -7.52634,4.64547 -16.16591,4.60577 -7.5141,-0.0345 -10.26984,-0.6197 -15.33117,-3.25544 -10.19456,-5.30894 -13.32237,-8.65364 -16.2116,-17.33579 -1.51025,-4.53831 -3.21227,-7.68611 -4.01359,-7.42296 -0.76524,0.2513 -1.67667,3.40481 -2.0254,7.00781 l -0.63405,6.55091 -1.39922,-4.83252 c -0.76957,-2.65788 -1.86267,-6.73159 -2.42911,-9.05268 -1.20345,-4.93138 -4.55818,-6.26386 -5.81339,-2.30905 -3.82625,12.05546 8.07332,33.61244 22.68991,41.1045 12.86485,6.59415 31.07471,7.34487 43.61683,1.79817 z m -9.57343,-20.57689 c 8.32351,-3.80725 13.51114,-10.13993 15.27783,-18.65002 2.33462,-11.24583 -1.91311,-20.51522 -12.17206,-26.56177 -4.46423,-2.63118 -6.87483,-3.19239 -13.47811,-3.1378 -6.6726,0.0552 -8.8915,0.62896 -13.03455,3.3707 -7.98519,5.28435 -9.72144,9.22159 -9.72671,22.05692 -0.004,9.41268 0.38759,11.57839 2.71788,15.0363 4.14542,6.1514 12.13879,10.06249 21.81965,10.67618 1.2054,0.0763 5.07363,-1.17931 8.59607,-2.79051 z m 142.40175,-35.55481 c 1.73116,-1.73116 2.40152,-3.8629 2.27003,-7.21864 -0.3298,-8.41674 -2.84237,-13.68953 -8.62016,-18.08992 -5.1436,-3.91739 -5.77029,-4.0818 -13.97913,-3.66727 -7.32141,0.36971 -9.20762,0.94393 -12.73692,3.87748 -4.83611,4.01974 -8.26672,11.12832 -9.22067,19.10612 -1.21232,10.13864 -1.76248,9.89222 20.37071,9.12415 17.43864,-0.60516 19.71463,-0.93041 21.91614,-3.13192 z M 387.2056,677.92581 v -10.10412 l -7.55081,-3.48734 c -6.87495,-3.1752 -8.6322,-3.46931 -19.63211,-3.28581 -13.43397,0.22411 -19.77837,2.10541 -28.98514,8.59494 -5.70888,4.02399 -7.45372,8.72141 -3.23954,8.72141 1.76315,0 2.10045,0.72613 1.67712,3.61047 -0.794,5.40983 2.20088,5.71879 8.53887,0.8809 10.10385,-7.71245 28.95055,-7.03073 40.23779,1.45547 8.00174,6.01603 8.95382,5.337 8.95382,-6.38592 z"
           id="path4394"
           sodipodi:nodetypes="sssscsssssssscssssssssssscssssssssssssssssssssssssssssssssssssssssssssssscssssssssssssssssssssssscssssssss"
           inkscape:label="ide"
           transform="scale(0.26458333)" /><path
           style="display:inline;fill:#6e7172;fill-opacity:1;stroke-width:9.01869"
           d="m 58.248749,172.79673 c 0.110636,-1.13013 0.346909,-4.57203 0.52505,-7.64867 0.682257,-11.78309 1.040699,-15.87596 1.524254,-17.40477 1.448443,-4.57938 3.814104,-7.7303 6.792823,-9.04763 1.887545,-0.83476 6.538626,-1.32258 8.715806,-0.91414 1.121386,0.21037 1.127376,0.22034 0.842901,1.40273 -0.157583,0.65497 -0.926396,4.64309 -1.708475,8.86248 -0.782077,4.21939 -1.546101,8.247 -1.697826,8.95023 -0.29677,1.3755 -0.152672,1.32939 -2.869044,0.91799 -2.753907,-0.41709 -5.726361,1.58354 -6.473118,4.35679 -0.549217,2.03963 0.144145,4.62054 1.697622,6.31908 l 0.663747,0.72572 c -1.430261,1.19413 -3.1334,2.20091 -4.455895,3.129 -0.693918,0.49745 -1.823567,1.2423 -2.510335,1.65521 l -1.24867,0.75076 z"
           id="path5571"
           sodipodi:nodetypes="sssssssssssccscs"
           inkscape:label="prozor prednji" /><path
           style="display:inline;fill:#6e7172;fill-opacity:1;stroke-width:7.46501"
           d="m 80.023408,138.70063 c 0,0 0.221623,-0.73862 1.64886,-0.77721 1.427233,-0.0386 64.490802,0.2988 64.490802,0.2988 l -0.0826,10.73515 -67.527503,5.46228 c 0,0 -0.848169,-0.94488 -0.848169,-0.94488 z"
           id="path10829"
           inkscape:label="prozor zadnji" /><path
           style="display:inline;fill:#6e7172;fill-opacity:1;stroke-width:7.46501"
           d="m 77.158706,159.40273 c 0,0 0.08006,-0.70171 0.909402,-0.95742 0.829339,-0.25571 66.994982,-4.84995 66.994982,-4.84995 0,0 2.55524,0.57818 0.87425,0.94561 -1.68099,0.36743 -68.778634,4.86176 -68.778634,4.86176 z"
           id="path10956"
           inkscape:label="linija ispod prozora" /></g><g
         id="g11380"
         inkscape:label="plavo"
         style="fill:#6b8bdb;fill-opacity:1"><path
           style="display:inline;fill:#6b8bdb;fill-opacity:1;stroke-width:9.01869"
           d="m 36.712774,201.51895 c -0.538678,-0.39598 -0.611656,-0.80687 -0.553527,-3.11659 0.06141,-2.44017 0.137192,-2.72134 0.915139,-3.39541 0.720272,-0.62411 1.160496,-0.72483 2.919142,-0.66789 1.350992,0.0437 2.154851,-0.0687 2.312273,-0.32341 0.430268,-0.69619 1.06204,-30.2058 0.924547,-43.18474 -0.119547,-11.28448 -0.195231,-12.77014 -0.712216,-13.98066 -0.69696,-1.63192 -2.480392,-3.28049 -3.548859,-3.28049 -1.03051,0 -1.391624,-0.76555 -1.606531,-3.40577 -0.155043,-1.90477 -0.09256,-2.28714 0.482512,-2.95275 0.636188,-0.73636 0.892146,-0.77553 6.921648,-1.05928 3.443568,-0.16205 6.481369,-0.21009 6.750667,-0.10675 0.421881,0.16189 0.458719,0.78398 0.26621,4.49552 l -0.223427,4.30763 0.736722,-0.006 c 0.437565,-0.004 1.813099,-0.90617 3.387484,-2.2227 5.12395,-4.28475 10.160828,-6.61107 15.569345,-7.19083 1.054846,-0.11308 9.685425,-0.0488 19.179058,0.14278 13.238429,0.26718 48.630499,0.87973 55.221319,0.95575 l 0.88064,0.0102 -0.20224,3.27642 c -0.11124,1.80203 -0.3047,3.39005 -0.42992,3.52893 -0.22152,0.24568 -53.20333,-0.21456 -67.947321,-0.59024 -8.506402,-0.21674 -10.015522,0.004 -14.214112,2.0771 -4.914699,2.42693 -7.764169,5.57588 -8.890347,9.82472 -1.389554,5.2425 -1.476515,6.93062 -1.48727,28.87177 l -0.01027,20.93714 3.405828,0.0904 c 4.194582,0.11136 4.265795,0.17251 4.265795,3.66294 0,3.98427 0.757107,3.75844 -12.600533,3.75844 -9.103479,0 -11.202482,-0.0817 -11.711762,-0.45612 z"
           id="path4392"
           inkscape:label="veliko r" /><path
           style="fill:#6b8bdb;fill-opacity:1;stroke-width:34.0864"
           d="m 257.2897,627.74768 c -8.59298,-3.71266 -8.14848,-14.96771 0.77083,-19.518 5.58377,-2.84863 8.0549,-2.92733 14.23773,-0.45345 8.31329,3.32632 9.471,12.44666 2.26306,17.82816 -3.48419,2.60133 -13.37166,3.82829 -17.27162,2.14329 z"
           id="path4396"
           inkscape:label="toÄka na i"
           transform="scale(0.26458333)" /><path
           style="display:inline;fill:#6b8bdb;fill-opacity:1;stroke-width:9.01869"
           d="m 73.161654,189.0136 c -0.0184,0.68485 -0.14504,5.87914 0.14996,8.3709 0.19738,1.66727 0.25766,1.7626 1.16708,1.84573 2.10388,0.1923 2.39739,0.35704 2.39739,1.34562 0,1.49911 -0.66115,1.64559 -6.47045,1.43359 -6.19428,-0.22606 -6.53267,-0.28203 -6.80018,-1.12486 -0.30331,-0.95566 0.39489,-1.58218 1.76319,-1.58218 0.66018,0 1.35393,-0.18508 1.54167,-0.4113 0.40278,-0.48532 0.46651,-10.4363 0.46651,-10.4363 -0.001,-0.58303 -0.005,-2.82243 -0.008,-3.61957 0,0 0.20725,-7.9734 -0.40469,-8.71075 -0.23872,-0.28764 -0.98307,-0.80307 -1.65411,-1.14541 -1.34504,-0.68619 -1.61957,-1.65175 -0.62151,-2.1859 0.87402,-0.46776 7.15809,-0.48951 8.02088,-0.0278 0.70315,0.37631 0.71058,0.45416 0.6061,6.34675 0.0525,5.4655 -0.12663,9.26835 -0.15393,9.90144 z"
           id="path4394-4"
           sodipodi:nodetypes="csssssssccsssscc"
           inkscape:label="i" /><path
           style="display:inline;fill:#6b8bdb;fill-opacity:1;stroke-width:9.01869"
           d="m 126.55039,202.66326 c -5.84101,-1.27078 -8.4352,-4.46527 -9.12089,-11.23146 -0.19379,-1.91238 -0.33371,-2.87367 -0.46848,-3.8865 0.059,-1.17511 0.11307,-2.25257 0.11307,-2.25257 0.25604,-0.85467 0.42707,-1.15273 0.89415,-2.14645 1.55834,-3.31536 2.00329,-5.44853 4.34385,-7.6565 1.20559,-1.13729 2.19199,-2.19116 2.19199,-2.34192 0,-0.5761 4.51554,-1.08869 7.62712,-0.8658 4.6472,0.33289 7.64574,1.98981 9.08327,5.01918 0.7222,1.52192 1.30149,5.50997 1.07642,7.4104 -0.42444,3.58365 -1.32275,3.87907 -10.84092,3.56508 -7.69717,-0.25392 -7.90485,-0.21138 -7.90485,1.61938 0,4.44422 2.29439,8.23767 5.50979,9.10965 0.80192,0.21747 2.61238,0.3091 4.39939,0.22267 2.48075,-0.11998 3.47558,-0.33212 5.43407,-1.15873 2.69135,-1.13594 2.98118,-1.03929 3.38811,1.12983 0.32882,1.75278 -0.40501,2.47513 -3.31104,3.25927 -2.96875,0.80105 -9.20117,0.90371 -12.41502,0.20451 z m 8.91732,-18.33796 c 0.45803,-0.45804 0.6354,-1.02206 0.60061,-1.90993 -0.0873,-2.22693 -0.75204,-3.62202 -2.28075,-4.78629 -1.36091,-1.03648 -1.52672,-1.07998 -3.69864,-0.9703 -1.93713,0.0978 -2.43619,0.24975 -3.36998,1.02592 -1.27956,1.06355 -2.18724,2.94436 -2.43964,5.05516 -0.32076,2.68251 -0.46632,2.61731 5.38975,2.41409 4.61398,-0.16011 5.21617,-0.24617 5.79865,-0.82865 z"
           id="path4394-1"
           sodipodi:nodetypes="ssccsssssssssssssssssssssss"
           inkscape:label="e" /></g></g></g></svg>
